<svg width="31" height="36" viewBox="0 0 31 36" fill="none" xmlns="http://www.w3.org/2000/svg">
<g clip-path="url(#clip0_7398_3504)">
<path d="M30.8302 17.2216C30.8302 20.6452 30.8302 24.017 30.8302 27.4406C30.8302 27.7 30.7787 27.9074 30.624 28.1668C28.2009 31.3311 25.1591 33.6654 21.344 35.0141C18.6115 35.9478 15.776 36.2072 12.8889 35.7922C9.58929 35.3253 6.59907 34.0804 3.96973 32.0573C2.47462 30.9161 1.23728 29.5155 0.154615 28.0112C0.0515037 27.9074 -5.18803e-05 27.7518 -5.18803e-05 27.5443C-5.18803e-05 20.6452 -5.18803e-05 13.7979 -5.18803e-05 6.89881C-5.18803e-05 6.79506 -0.0516075 6.63944 0.103059 6.58757C0.257726 6.48382 0.360837 6.63944 0.463949 6.74319C2.37151 8.29938 4.22751 9.85558 6.13507 11.4118C6.34129 11.5674 6.28973 11.7749 6.28973 11.9824C6.28973 15.8729 6.28973 19.7634 6.28973 23.602C6.28973 24.1726 6.28973 24.7432 6.28973 25.3138C6.28973 25.5213 6.34129 25.7288 6.49596 25.8844C9.89863 29.2562 13.8684 30.3974 18.5084 29.308C20.8284 28.7893 22.736 27.5443 24.3858 25.8844C24.5404 25.6769 24.592 25.5213 24.592 25.2619C24.592 20.9046 24.592 16.5472 24.592 12.1899C24.592 11.723 24.7466 11.4118 25.1075 11.1524C26.912 9.69996 28.6649 8.19564 30.4178 6.74319C30.5209 6.63944 30.624 6.48382 30.7787 6.53569C30.9333 6.63944 30.8818 6.79506 30.8818 6.95068C30.8302 10.3743 30.8302 13.7979 30.8302 17.2216Z" fill="#DD3B3A"/>
<path d="M25.3653 -0.000430586C26.9635 -0.000430586 28.5618 -0.000430586 30.16 -0.000430586C30.3147 -0.000430586 30.5209 -0.104177 30.5724 0.103316C30.624 0.258935 30.4178 0.362682 30.3147 0.414555C27.2213 3.00822 24.0764 5.60188 20.9831 8.19554C20.2613 8.81801 19.488 9.44049 18.7662 10.063C18.6631 10.1667 18.5084 10.2705 18.3538 10.2186C18.1475 10.1148 18.1991 9.95922 18.1991 9.8036C18.1991 7.36556 18.1991 4.92752 18.1991 2.48948C18.1991 1.08891 19.3333 -0.000430586 20.7253 -0.000430586C20.7769 -0.000430586 20.7769 -0.000430586 20.8284 -0.000430586C22.272 -0.000430586 23.8187 -0.000430586 25.3653 -0.000430586Z" fill="#327CC8"/>
<path d="M5.51667 0.000487213C7.01179 0.000487213 8.55846 0.000487213 10.0536 0.000487213C11.6518 0.000487213 12.6829 1.03795 12.6829 2.64602C12.6829 5.03219 12.6829 7.36648 12.6829 9.75265C12.6829 9.90827 12.7345 10.1158 12.5282 10.2195C12.322 10.3233 12.2189 10.1676 12.0642 10.0639C9.07401 7.57397 6.03223 5.03219 2.99045 2.4904C2.16556 1.81605 1.34067 1.1417 0.515779 0.415473C0.412668 0.3636 0.258001 0.259853 0.309557 0.104234C0.361113 -0.051386 0.515779 0.000487213 0.670446 0.000487213C2.26867 0.000487213 3.91845 0.000487213 5.51667 0.000487213Z" fill="#327CC8"/>
</g>
<defs>
<clipPath id="clip0_7398_3504">
<rect width="30.8303" height="36" fill="white"/>
</clipPath>
</defs>
</svg>
