<svg width="151" height="40" viewBox="0 0 151 40" fill="none" xmlns="http://www.w3.org/2000/svg">
<g clip-path="url(#clip0_5472_10189)">
<path d="M37.5517 18.1538C36.5816 19.2884 35.4053 20.2992 34.0225 21.3513C35.0338 19.2059 35.818 16.6066 36.334 14.6468C35.1782 12.0269 33.4034 9.42763 30.7617 7.11716C30.4934 8.80875 29.8742 10.4385 29.09 12.2538C28.9455 9.73707 28.3057 6.86961 27.7898 4.86858C25.7466 3.52768 23.6415 2.55811 21.6189 1.83609C21.8047 3.63083 21.6808 5.46683 21.4332 7.48849C20.7727 5.23991 19.6376 2.78503 18.7296 0.990292C12.7651 -0.474381 7.99766 0.123866 7.99766 0.123866L11.2585 6.64269L13.57 8.82938L5.78936 4.9511C5.43851 5.79689 5.27341 8.29303 6.30532 9.81958C7.58489 11.7175 10.8457 11.5937 12.0428 11.0986C11.5268 11.8206 10.8045 12.2745 9.4217 12.3157C9.4217 12.3157 6.59425 16.194 6.11957 16.8541C5.64489 17.5143 5.60362 17.9269 5.5417 18.5664C5.47979 19.2059 5.47979 20.0517 5.35596 20.258C5.21149 20.4436 2.23958 24.1981 1.45533 25.0027C0.671073 25.8072 -0.257649 26.653 -0.216373 27.0862C-0.175096 27.5194 1.14575 29.3348 1.95064 29.9949C2.75554 30.6551 3.06511 30.5932 3.39532 30.5932C3.74617 30.5932 4.01447 30.49 4.22085 30.7788C4.42724 31.0676 4.94319 31.769 5.17021 31.9341C5.39723 32.0991 5.83064 32.2848 6.30532 31.9341C6.78 31.5834 11.0728 28.7366 11.6713 28.6334C12.0428 28.5715 14.1066 28.3033 15.737 28.0145C16.6245 27.8701 17.677 27.375 18.0898 27.0243C18.2755 26.9006 18.42 26.7355 18.6057 26.5911C18.7708 26.4261 18.9359 26.2817 19.0804 26.1166C19.2455 25.9516 19.39 25.7866 19.5344 25.6009C20.133 24.8995 20.6902 24.1569 21.2061 23.373C21.4744 22.981 21.7221 22.5891 21.9698 22.1971C21.9698 22.1765 22.0317 22.094 22.0317 22.0733L22.0523 22.0321L22.073 21.9702C22.0936 21.8877 22.1349 21.7845 22.1349 21.6814C22.1761 21.4751 22.1761 21.2482 22.1968 21.0212C22.1968 20.5674 22.1761 20.1136 22.1142 19.6391C22.0523 19.1852 21.9904 18.7108 21.9285 18.2569C21.9078 18.1744 21.9698 18.1125 22.0317 18.1125C22.0936 18.0919 22.1555 18.1331 22.1761 18.195C22.2587 18.422 22.3206 18.6489 22.3825 18.8758C22.4444 19.1027 22.5064 19.3296 22.5476 19.5772C22.6508 20.0517 22.7334 20.5261 22.754 21.0212C22.7747 21.2688 22.7747 21.5163 22.754 21.7845C22.7334 21.9083 22.7127 22.0527 22.6921 22.1765L22.6715 22.2796C22.6508 22.3209 22.6508 22.3621 22.6302 22.4034C22.5889 22.4859 22.5889 22.5065 22.5476 22.5891C22.3206 23.0016 22.073 23.4142 21.8253 23.8268C21.33 24.652 20.7934 25.4359 20.1742 26.1992C20.0298 26.3848 19.8647 26.5705 19.6996 26.7561C19.5344 26.9418 19.3693 27.1068 19.2042 27.2925C19.0185 27.4575 18.8534 27.6432 18.647 27.7876C17.223 28.9635 15.6751 29.4998 14.2304 30.6551C12.5587 31.996 10.7425 33.44 9.89638 34.1827C8.14212 35.7505 7.70872 36.5963 7.17213 37.7721C7.02766 38.1022 6.71808 38.9686 6.34659 40.062C14.6432 37.4421 37.1182 31.1502 37.1182 31.1502C37.9438 29.5411 39.0789 24.095 37.5517 18.1538ZM11.1553 16.9779C11.0728 17.1636 9.25659 20.2786 9.05021 20.588C8.84383 20.8975 8.16276 21.7845 8.03893 21.8258C7.9151 21.8464 8.16276 21.0212 8.16276 20.9593C8.16276 20.8768 8.05957 19.2678 8.05957 19.2678C8.05957 19.2678 7.79127 19.1852 7.56425 18.9789C7.33723 18.7727 7.02766 18.4426 7.0483 18.3807C7.06893 18.3394 7.50234 18.5664 7.68808 18.6283C7.87383 18.6901 7.97702 18.7314 8.30723 18.5251C8.30723 18.5251 10.9696 16.7922 11.0521 16.751C11.114 16.6891 11.2379 16.7716 11.1553 16.9779Z" fill="#246CF9"/>
</g>
<path d="M134.12 29.4648L136.972 15.1564H131.295L132.32 10.0918H150.21L149.185 15.1564H143.508L140.656 29.4648H134.12Z" fill="white"/>
<path d="M120.229 29.4648L124.106 10.0918H130.642L126.764 29.4648H120.229Z" fill="white"/>
<path d="M98.8098 29.4648L102.687 10.0918H112.961C115.269 10.0918 117.004 10.4977 118.167 11.3095C119.331 12.1029 119.912 13.2376 119.912 14.7136C119.912 15.9129 119.561 16.9277 118.86 17.758C118.177 18.5882 117.226 19.2248 116.007 19.6676C114.807 20.0919 113.423 20.3041 111.853 20.3041L112.684 18.8096C114.66 18.8096 116.21 19.2063 117.337 19.9997C118.481 20.7746 119.054 21.8724 119.054 23.2931C119.054 24.7138 118.638 25.8854 117.807 26.8079C116.995 27.712 115.906 28.3854 114.54 28.8282C113.173 29.2526 111.659 29.4648 109.998 29.4648H98.8098ZM106.149 24.8983H110.358C111.004 24.8983 111.53 24.7507 111.936 24.4555C112.361 24.1603 112.573 23.7175 112.573 23.127C112.573 22.7027 112.407 22.389 112.075 22.1861C111.761 21.9647 111.392 21.854 110.967 21.854H106.315L107.173 17.5366H110.939C111.438 17.5366 111.844 17.472 112.158 17.3428C112.49 17.1952 112.73 17.0015 112.878 16.7616C113.026 16.5033 113.1 16.1989 113.1 15.8483C113.1 15.4424 112.943 15.1472 112.629 14.9627C112.333 14.7598 111.918 14.6583 111.383 14.6583H108.198L106.149 24.8983Z" fill="white"/>
<path d="M89.1279 29.4648L93.005 10.0918H99.5406L95.6636 29.4648H89.1279Z" fill="white"/>
<path d="M66.8705 29.4648L70.7476 10.0918H76.1201L83.4035 21.8816H81.1326L83.4865 10.0918H89.856L85.9789 29.4648H80.6064L73.3231 17.6749H75.5939L73.24 29.4648H66.8705Z" fill="white"/>
<path d="M54.9298 29.9076C52.9174 29.9076 51.2373 29.5293 49.8896 28.7729C48.5418 27.998 47.5818 26.9278 47.0095 25.5625C46.4556 24.1787 46.3633 22.5735 46.7325 20.7469L48.8649 10.0918H55.4006L53.2959 20.6362C53.1666 21.3189 53.1205 21.9093 53.1574 22.4075C53.1943 22.9056 53.3143 23.3208 53.5174 23.6529C53.739 23.985 54.0343 24.2341 54.4036 24.4001C54.7728 24.5477 55.2159 24.6215 55.7329 24.6215C56.3606 24.6215 56.896 24.4924 57.3391 24.2341C57.8006 23.9758 58.1791 23.5514 58.4745 22.961C58.7884 22.3706 59.0376 21.5957 59.2222 20.6362L61.3269 10.0918H67.7518L65.564 21.0237C64.9917 23.9204 63.8193 26.1252 62.0469 27.6382C60.2746 29.1511 57.9022 29.9076 54.9298 29.9076Z" fill="white"/>
<defs>
<clipPath id="clip0_5472_10189">
<rect width="38.511" height="40" fill="white"/>
</clipPath>
</defs>
</svg>
