<svg width="228" height="237" viewBox="0 0 228 237" fill="none" xmlns="http://www.w3.org/2000/svg">
<path d="M192.624 236.023L198.895 204.467H186.413L188.666 193.297H228L225.747 204.467H213.265L206.993 236.023H192.624Z" fill="white"/>
<path d="M162.081 236.023L170.606 193.297H184.975L176.451 236.023H162.081Z" fill="white"/>
<path d="M114.988 236.023L123.512 193.297H146.102C151.176 193.297 154.992 194.192 157.549 195.982C160.106 197.732 161.385 200.235 161.385 203.49C161.385 206.135 160.614 208.373 159.071 210.204C157.569 212.035 155.479 213.439 152.8 214.416C150.161 215.352 147.117 215.82 143.667 215.82L145.493 212.524C149.837 212.524 153.246 213.399 155.722 215.148C158.239 216.857 159.498 219.279 159.498 222.412C159.498 225.545 158.584 228.129 156.758 230.164C154.972 232.158 152.577 233.643 149.573 234.619C146.569 235.555 143.24 236.023 139.587 236.023H114.988ZM131.123 225.952H140.379C141.799 225.952 142.956 225.627 143.849 224.975C144.783 224.324 145.25 223.348 145.25 222.046C145.25 221.11 144.884 220.418 144.154 219.97C143.464 219.482 142.652 219.238 141.718 219.238H131.489L133.376 209.716H141.657C142.753 209.716 143.646 209.573 144.336 209.289C145.067 208.963 145.595 208.536 145.919 208.007C146.244 207.437 146.407 206.766 146.407 205.993C146.407 205.097 146.061 204.446 145.371 204.039C144.722 203.592 143.809 203.368 142.631 203.368H135.629L131.123 225.952Z" fill="white"/>
<path d="M93.7007 236.023L102.225 193.297H116.595L108.07 236.023H93.7007Z" fill="white"/>
<path d="M44.7639 236.023L53.2883 193.297H65.1007L81.1144 219.299H76.1215L81.297 193.297H95.3014L86.777 236.023H74.9646L58.9509 210.021H63.9438L58.7683 236.023H44.7639Z" fill="white"/>
<path d="M18.5101 237C14.0855 237 10.3916 236.166 7.4284 234.497C4.46516 232.788 2.35436 230.428 1.09599 227.417C-0.121777 224.365 -0.324739 220.825 0.487108 216.796L5.17553 193.297H19.5452L14.9177 216.552C14.6335 218.058 14.5321 219.36 14.6132 220.459C14.6944 221.557 14.9583 222.473 15.4048 223.205C15.8919 223.938 16.5414 224.487 17.3532 224.853C18.1651 225.179 19.1393 225.342 20.2759 225.342C21.656 225.342 22.8332 225.057 23.8074 224.487C24.8222 223.917 25.6544 222.982 26.3038 221.679C26.9939 220.377 27.5419 218.668 27.9478 216.552L32.5754 193.297H46.7015L41.8913 217.407C40.6329 223.795 38.0553 228.658 34.1585 231.995C30.2616 235.332 25.0455 237 18.5101 237Z" fill="white"/>
<g clip-path="url(#clip0_5403_741)">
<path d="M190.317 76.5396C186.271 81.3233 181.364 85.5852 175.596 90.021C179.814 80.9754 183.085 70.0163 185.238 61.7535C180.417 50.7075 173.013 39.7484 161.994 30.007C160.875 37.1391 158.293 44.0103 155.021 51.6642C154.419 41.0531 151.75 28.9633 149.598 20.5265C141.076 14.873 132.295 10.7851 123.858 7.74093C124.633 15.3079 124.117 23.0489 123.084 31.5726C120.329 22.0921 115.594 11.7419 111.806 4.17488C86.9275 -2.00047 67.0417 0.521855 67.0417 0.521855L80.6432 28.0065L90.2849 37.2261L57.8305 20.8744C56.367 24.4405 55.6783 34.9647 59.9826 41.401C65.3199 49.4028 78.9215 48.881 83.9145 46.7935C81.7624 49.8377 78.7493 51.7512 72.9816 51.9252C72.9816 51.9252 61.1878 68.2768 59.2078 71.0601C57.2279 73.8433 57.0557 75.5829 56.7974 78.2791C56.5392 80.9754 56.5392 84.5415 56.0227 85.4112C55.4201 86.194 43.0237 102.024 39.7524 105.416C36.4812 108.808 32.6073 112.374 32.7795 114.201C32.9516 116.027 38.4611 123.681 41.8185 126.464C45.1758 129.248 46.4671 128.987 47.8445 128.987C49.308 128.987 50.4271 128.552 51.2879 129.769C52.1488 130.987 54.3009 133.944 55.2479 134.64C56.1948 135.336 58.0026 136.119 59.9826 134.64C61.9626 133.162 79.8685 121.159 82.365 120.724C83.9145 120.463 92.5231 119.332 99.3239 118.115C103.026 117.506 107.416 115.418 109.138 113.94C109.912 113.418 110.515 112.722 111.29 112.113C111.979 111.417 112.667 110.808 113.27 110.113C113.958 109.417 114.561 108.721 115.164 107.938C117.66 104.981 119.985 101.85 122.137 98.5447C123.256 96.8922 124.289 95.2396 125.322 93.5871C125.322 93.5001 125.58 93.1522 125.58 93.0652L125.666 92.8913L125.752 92.6303C125.838 92.2824 126.011 91.8475 126.011 91.4126C126.183 90.5429 126.183 89.5861 126.269 88.6294C126.269 86.7159 126.183 84.8024 125.924 82.8019C125.666 80.8884 125.408 78.888 125.15 76.9745C125.064 76.6266 125.322 76.3657 125.58 76.3657C125.838 76.2787 126.097 76.4526 126.183 76.7136C126.527 77.6703 126.785 78.627 127.044 79.5838C127.302 80.5405 127.56 81.4973 127.732 82.541C128.163 84.5415 128.507 86.5419 128.593 88.6294C128.679 89.6731 128.679 90.7168 128.593 91.8475C128.507 92.3694 128.421 92.9782 128.335 93.5001L128.249 93.935C128.163 94.1089 128.163 94.2829 128.077 94.4568C127.904 94.8047 127.904 94.8917 127.732 95.2396C126.785 96.9792 125.752 98.7187 124.719 100.458C122.653 103.937 120.415 107.242 117.832 110.461C117.23 111.243 116.541 112.026 115.852 112.809C115.164 113.592 114.475 114.288 113.786 115.07C113.012 115.766 112.323 116.549 111.462 117.158C105.522 122.115 99.0656 124.377 93.0396 129.248C86.0667 134.901 78.4911 140.989 74.9616 144.121C67.6443 150.731 65.8365 154.297 63.5982 159.255C62.9956 160.646 61.7043 164.299 60.1548 168.909C94.7613 157.863 188.509 131.335 188.509 131.335C191.952 124.551 196.687 101.589 190.317 76.5396ZM80.2128 71.5819C79.8685 72.3647 72.2929 85.4982 71.432 86.8029C70.5712 88.1075 67.7304 91.8475 67.2138 92.0215C66.6973 92.1085 67.7303 88.6294 67.7303 88.3685C67.7303 88.0205 67.2999 81.2364 67.2999 81.2364C67.2999 81.2364 66.1808 80.8884 65.2339 80.0187C64.2869 79.1489 62.9956 77.7573 63.0817 77.4963C63.1678 77.3224 64.9756 78.2791 65.7504 78.5401C66.5251 78.801 66.9556 78.975 68.333 78.1052C68.333 78.1052 79.438 70.7991 79.7824 70.6252C80.0406 70.3643 80.5572 70.7122 80.2128 71.5819Z" fill="white"/>
</g>
<defs>
<clipPath id="clip0_5403_741">
<rect width="160.636" height="168.648" fill="white" transform="translate(33.6819)"/>
</clipPath>
</defs>
</svg>
