<svg width="440" height="119" viewBox="0 0 440 119" fill="none" xmlns="http://www.w3.org/2000/svg">
<g clip-path="url(#clip0_5403_731)">
<path d="M111.716 54.0072C108.83 57.3826 105.331 60.3899 101.217 63.5198C104.225 57.1372 106.559 49.4043 108.094 43.574C104.655 35.7798 99.375 28.0469 91.5159 21.1733C90.7177 26.2058 88.8757 31.0541 86.5426 36.4549C86.1128 28.9675 84.2094 20.4368 82.6745 14.4837C76.596 10.4946 70.3333 7.61009 64.3162 5.46207C64.8688 10.8014 64.5004 16.2635 63.7636 22.278C61.7989 15.5884 58.4219 8.28518 55.7204 2.94583C37.9761 -1.41157 23.793 0.368208 23.793 0.368208L33.494 19.7617L40.3707 26.2671L17.2233 14.7292C16.1795 17.2455 15.6883 24.6715 18.7583 29.213C22.565 34.8592 32.266 34.491 35.8272 33.018C34.2922 35.166 32.1432 36.5162 28.0295 36.639C28.0295 36.639 19.6179 48.1769 18.2057 50.1408C16.7935 52.1047 16.6707 53.3321 16.4865 55.2346C16.3023 57.1372 16.3023 59.6534 15.9339 60.2671C15.5041 60.8195 6.66271 71.9891 4.32955 74.3826C1.9964 76.7761 -0.766551 79.2924 -0.643753 80.5812C-0.520956 81.87 3.40857 87.2707 5.80312 89.2346C8.19768 91.1985 9.11866 91.0144 10.101 91.0144C11.1448 91.0144 11.943 90.7076 12.557 91.5668C13.171 92.426 14.706 94.5126 15.3813 95.0036C16.0567 95.4946 17.3461 96.0469 18.7583 95.0036C20.1705 93.9603 32.9414 85.491 34.722 85.1841C35.8272 85 41.967 84.2021 46.8176 83.3429C49.4577 82.9133 52.589 81.4404 53.817 80.3971C54.3696 80.0289 54.7994 79.5379 55.352 79.1083C55.8432 78.6173 56.3344 78.1877 56.7642 77.6967C57.2553 77.2057 57.6851 76.7148 58.1149 76.1624C59.8955 74.0758 61.5533 71.8664 63.0882 69.5343C63.8864 68.3682 64.6232 67.2021 65.36 66.0361C65.36 65.9747 65.5442 65.7292 65.5442 65.6678L65.6056 65.5451L65.667 65.361C65.7284 65.1155 65.8512 64.8086 65.8512 64.5018C65.974 63.8881 65.974 63.213 66.0354 62.5379C66.0354 61.1877 65.974 59.8375 65.7898 58.426C65.6056 57.0758 65.4214 55.6642 65.2372 54.3141C65.1758 54.0686 65.36 53.8845 65.5442 53.8845C65.7284 53.8231 65.9126 53.9458 65.974 54.1299C66.2196 54.805 66.4038 55.4801 66.588 56.1552C66.7722 56.8303 66.9564 57.5054 67.0792 58.2419C67.3862 59.6534 67.6318 61.065 67.6932 62.5379C67.7546 63.2743 67.7546 64.0108 67.6932 64.8086C67.6318 65.1769 67.5704 65.6065 67.509 65.9747L67.4476 66.2816C67.3862 66.4043 67.3862 66.527 67.3248 66.6498C67.202 66.8953 67.202 66.9566 67.0792 67.2021C66.4038 68.4296 65.667 69.657 64.9302 70.8845C63.4566 73.3393 61.8603 75.6715 60.0183 77.9422C59.5885 78.4946 59.0973 79.0469 58.6061 79.5993C58.1149 80.1516 57.6237 80.6426 57.1325 81.1949C56.58 81.6859 56.0888 82.2382 55.4748 82.6678C51.2383 86.166 46.6334 87.7617 42.3354 91.1985C37.3621 95.1877 31.959 99.4837 29.4417 101.693C24.2228 106.357 22.9334 108.874 21.337 112.372C20.9072 113.354 19.9863 115.931 18.8811 119.184C43.5634 111.39 110.427 92.6715 110.427 92.6715C112.883 87.8845 116.26 71.6823 111.716 54.0072ZM33.187 50.509C32.9414 51.0613 27.5383 60.3285 26.9243 61.2491C26.3103 62.1697 24.2842 64.8086 23.9158 64.9314C23.5474 64.9928 24.2842 62.5379 24.2842 62.3538C24.2842 62.1083 23.9772 57.3213 23.9772 57.3213C23.9772 57.3213 23.179 57.0758 22.5036 56.4621C21.8282 55.8484 20.9072 54.8664 20.9686 54.6823C21.03 54.5595 22.3194 55.2346 22.872 55.4187C23.4246 55.6029 23.7316 55.7256 24.714 55.1119C24.714 55.1119 32.6344 49.9566 32.88 49.8339C33.0642 49.6498 33.4326 49.8953 33.187 50.509Z" fill="#246CF9"/>
</g>
<path d="M392.133 90.054L400.619 47.4868H383.729L386.778 32.4194H440L436.952 47.4868H420.062L411.576 90.054H392.133Z" fill="white"/>
<path d="M350.806 90.054L362.341 32.4194H381.784L370.25 90.054H350.806Z" fill="white"/>
<path d="M287.085 90.054L298.619 32.4194H329.185C336.05 32.4194 341.213 33.627 344.674 36.0422C348.134 38.4025 349.864 41.7782 349.864 46.1694C349.864 49.7373 348.82 52.7562 346.733 55.2263C344.701 57.6963 341.872 59.59 338.247 60.9074C334.677 62.1699 330.558 62.8011 325.889 62.8011L328.361 58.355C334.238 58.355 338.852 59.5351 342.202 61.8954C345.607 64.2008 347.31 67.4668 347.31 71.6933C347.31 75.9198 346.074 79.4054 343.603 82.1499C341.186 84.8395 337.945 86.843 333.881 88.1603C329.816 89.4228 325.313 90.054 320.369 90.054H287.085ZM308.917 76.4687H321.44C323.363 76.4687 324.928 76.0296 326.136 75.1514C327.4 74.2731 328.031 72.9558 328.031 71.1993C328.031 69.9368 327.537 69.0037 326.548 68.3999C325.615 67.7412 324.516 67.4119 323.253 67.4119H309.412L311.966 54.5676H323.17C324.653 54.5676 325.862 54.3755 326.796 53.9912C327.784 53.5521 328.498 52.9758 328.938 52.2622C329.377 51.4937 329.597 50.5881 329.597 49.5451C329.597 48.3376 329.13 47.4593 328.196 46.9104C327.317 46.3066 326.082 46.0047 324.489 46.0047H315.014L308.917 76.4687Z" fill="white"/>
<path d="M258.281 90.054L269.816 32.4194H289.259L277.725 90.054H258.281Z" fill="white"/>
<path d="M192.065 90.054L203.6 32.4194H219.583L241.251 67.4942H234.495L241.498 32.4194H260.447L248.913 90.054H232.93L211.262 54.9793H218.018L211.015 90.054H192.065Z" fill="white"/>
<path d="M156.542 91.3714C150.555 91.3714 145.557 90.2462 141.547 87.9957C137.538 85.6903 134.682 82.5066 132.979 78.4448C131.331 74.328 131.056 69.5526 132.155 64.1185L138.499 32.4194H157.942L151.681 63.7891C151.296 65.8201 151.159 67.5765 151.269 69.0586C151.379 70.5406 151.736 71.7756 152.34 72.7637C152.999 73.7517 153.878 74.4927 154.976 74.9867C156.075 75.4258 157.393 75.6454 158.931 75.6454C160.798 75.6454 162.391 75.2612 163.709 74.4927C165.083 73.7242 166.208 72.4618 167.087 70.7053C168.021 68.9488 168.763 66.6434 169.312 63.7891L175.573 32.4194H194.687L188.179 64.9418C186.476 73.5596 182.988 80.1189 177.715 84.6199C172.442 89.1209 165.385 91.3714 156.542 91.3714Z" fill="white"/>
<defs>
<clipPath id="clip0_5403_731">
<rect width="114.57" height="119" fill="white"/>
</clipPath>
</defs>
</svg>
