<svg width="140" height="36" viewBox="0 0 140 36" fill="none" xmlns="http://www.w3.org/2000/svg">
<g clip-path="url(#clip0_6090_11153)">
<path d="M30.8303 17.2216C30.8303 20.6452 30.8303 24.017 30.8303 27.4406C30.8303 27.7 30.7787 27.9074 30.624 28.1668C28.2009 31.3311 25.1591 33.6654 21.344 35.0141C18.6116 35.9478 15.776 36.2072 12.8889 35.7922C9.58935 35.3253 6.59912 34.0804 3.96978 32.0573C2.47467 30.9161 1.23734 29.5155 0.154668 28.0112C0.0515571 27.9074 1.52551e-06 27.7518 1.52551e-06 27.5443C1.52551e-06 20.6452 1.52551e-06 13.7979 1.52551e-06 6.89881C1.52551e-06 6.79506 -0.0515541 6.63944 0.103113 6.58757C0.25778 6.48382 0.360891 6.63944 0.464002 6.74319C2.37156 8.29938 4.22756 9.85558 6.13512 11.4118C6.34134 11.5674 6.28979 11.7749 6.28979 11.9824C6.28979 15.8729 6.28979 19.7634 6.28979 23.602C6.28979 24.1726 6.28979 24.7432 6.28979 25.3138C6.28979 25.5213 6.34134 25.7288 6.49601 25.8844C9.89868 29.2562 13.8685 30.3974 18.5085 29.308C20.8285 28.7893 22.736 27.5443 24.3858 25.8844C24.5405 25.6769 24.592 25.5213 24.592 25.2619C24.592 20.9046 24.592 16.5472 24.592 12.1899C24.592 11.723 24.7467 11.4118 25.1076 11.1524C26.912 9.69996 28.6649 8.19564 30.4178 6.74319C30.5209 6.63944 30.624 6.48382 30.7787 6.53569C30.9334 6.63944 30.8818 6.79506 30.8818 6.95068C30.8303 10.3743 30.8303 13.7979 30.8303 17.2216Z" fill="#DD3B3A"/>
<path d="M25.3654 -0.000430586C26.9636 -0.000430586 28.5618 -0.000430586 30.16 -0.000430586C30.3147 -0.000430586 30.5209 -0.104177 30.5725 0.103316C30.624 0.258935 30.4178 0.362682 30.3147 0.414555C27.2214 3.00822 24.0765 5.60188 20.9831 8.19554C20.2614 8.81801 19.488 9.44049 18.7662 10.063C18.6631 10.1667 18.5085 10.2705 18.3538 10.2186C18.1476 10.1148 18.1991 9.95922 18.1991 9.8036C18.1991 7.36556 18.1991 4.92752 18.1991 2.48948C18.1991 1.08891 19.3334 -0.000430586 20.7254 -0.000430586C20.7769 -0.000430586 20.7769 -0.000430586 20.8285 -0.000430586C22.272 -0.000430586 23.8187 -0.000430586 25.3654 -0.000430586Z" fill="#327CC8"/>
<path d="M5.51645 0.000487213C7.01157 0.000487213 8.55823 0.000487213 10.0533 0.000487213C11.6516 0.000487213 12.6827 1.03795 12.6827 2.64602C12.6827 5.03219 12.6827 7.36648 12.6827 9.75265C12.6827 9.90827 12.7342 10.1158 12.528 10.2195C12.3218 10.3233 12.2187 10.1676 12.064 10.0639C9.07379 7.57397 6.03201 5.03219 2.99023 2.4904C2.16534 1.81605 1.34045 1.1417 0.515558 0.415473C0.412447 0.3636 0.25778 0.259853 0.309336 0.104234C0.360891 -0.051386 0.515558 0.000487213 0.670225 0.000487213C2.26845 0.000487213 3.91823 0.000487213 5.51645 0.000487213Z" fill="#327CC8"/>
</g>
<g clip-path="url(#clip1_6090_11153)">
<path d="M86.665 18.9861C86.665 17.4299 86.665 15.9256 86.665 14.3694C86.665 13.9544 86.5619 13.7469 86.0979 13.7469C84.809 13.7469 84.809 13.7469 84.8606 12.502C84.8606 11.7758 84.8606 11.0495 84.8606 10.3233C84.8606 9.96019 84.9637 9.85645 85.3246 9.85645C88.2117 9.85645 91.1503 9.85645 94.0375 9.85645C94.4499 9.85645 94.6046 9.96019 94.553 10.3752C94.553 11.3089 94.553 12.2945 94.553 13.2282C94.553 13.6432 94.3983 13.7469 94.0375 13.7469C92.7486 13.7469 92.7486 13.7469 92.7486 15.0956C92.7486 17.8968 92.7486 20.6461 92.7486 23.4472C92.7486 24.0178 92.8517 24.2253 93.4703 24.2253C94.6046 24.1734 94.6046 24.2253 94.6046 25.3665C94.6046 26.0928 94.6046 26.8709 94.6046 27.5971C94.6046 27.9602 94.5015 28.1158 94.1406 28.1158C91.2019 28.1158 88.3148 28.1158 85.3761 28.1158C85.0152 28.1158 84.9121 27.9602 84.9121 27.649C84.9121 26.6634 84.9121 25.6778 84.9121 24.6403C84.9121 24.2772 85.0668 24.1734 85.3761 24.1734C86.7166 24.1216 86.7166 24.1216 86.7166 22.8247C86.665 21.5279 86.665 20.283 86.665 18.9861Z" fill="#327CC8"/>
<path d="M98.6259 17.9998C98.6259 14.8874 98.6259 11.7232 98.6259 8.61076C98.6259 8.1439 98.729 7.98828 99.2446 7.98828C100.894 8.04015 102.493 7.98828 104.142 7.98828C104.555 7.98828 104.709 8.09203 104.709 8.55889C104.709 14.8874 104.709 21.2678 104.709 27.5963C104.709 28.0113 104.555 28.167 104.142 28.167C102.493 28.167 100.894 28.167 99.2446 28.167C98.7806 28.167 98.6259 28.0113 98.6259 27.5445C98.6259 24.3283 98.6259 21.1641 98.6259 17.9998Z" fill="#327CC8"/>
<path d="M77.2819 28.1149C76.457 28.1149 75.6321 28.0631 74.8072 28.1149C74.2917 28.1668 73.9823 27.9593 73.7245 27.4925C70.9921 22.9276 68.2596 18.3628 65.5272 13.8498C64.857 12.7086 64.1352 11.5155 63.465 10.3743C63.2587 10.0112 63.1041 9.80371 63.7227 9.80371C65.4756 9.80371 67.2801 9.80371 69.033 9.80371C69.3939 9.80371 69.6001 9.90746 69.8063 10.2706C73.209 15.9766 76.6632 21.6308 80.1174 27.3369C80.1174 27.3369 80.1174 27.3887 80.169 27.3887C80.2721 27.5962 80.5299 27.7518 80.4268 28.0112C80.3237 28.2187 80.0143 28.1149 79.8081 28.1149C78.9317 28.1149 78.1068 28.1149 77.2819 28.1149Z" fill="#327CC8"/>
<path d="M135.127 17.1704C135.127 19.401 135.127 21.6315 135.127 23.8102C135.127 24.277 135.282 24.4845 135.746 24.4327C136.674 24.3808 137.654 24.4327 138.582 24.4327C138.942 24.4327 139.097 24.4845 139.097 24.8995C139.097 25.8332 139.097 26.7151 139.097 27.6488C139.097 28.0119 138.942 28.1156 138.633 28.1156C136.777 28.1156 134.921 28.1156 133.065 28.1156C132.807 28.1156 132.601 28.0119 132.395 27.8044C131.415 26.8188 130.436 25.7814 129.405 24.7958C129.147 24.5364 129.044 24.2252 129.044 23.862C129.044 21.839 129.044 19.8159 129.044 17.741C129.044 17.2742 128.941 17.0148 128.425 17.1185C127.91 17.2223 127.755 16.9629 127.806 16.4442C127.858 15.6142 127.858 14.7842 127.806 13.9543C127.806 13.5393 127.961 13.3837 128.322 13.4355C128.889 13.5393 129.147 13.2799 129.044 12.7093C128.889 12.035 129.25 11.7756 129.817 11.5681C131.415 11.0494 132.962 10.5306 134.56 9.96003C134.973 9.80441 135.076 9.90816 135.076 10.375C135.127 12.7093 135.127 14.9399 135.127 17.1704Z" fill="#327CC8"/>
<path d="M41.1414 17.1706C41.1414 14.94 41.1414 12.7095 41.1414 10.4789C41.1414 10.0121 41.2445 9.85645 41.7085 9.85645C43.3583 9.90832 45.0081 9.90832 46.6063 9.85645C47.1218 9.85645 47.225 10.0121 47.225 10.4789C47.225 14.8363 47.225 19.2455 47.225 23.6028C47.225 24.4328 47.225 24.4328 48.0498 24.4328C49.4418 24.4328 49.4418 24.4328 49.4418 25.8334C49.4418 26.4559 49.4418 27.0265 49.4418 27.649C49.4418 28.0121 49.3387 28.1158 48.9778 28.1158C47.689 28.1158 46.4001 28.1158 45.0596 28.1158C44.8534 28.1158 44.6472 28.0639 44.4925 27.9083C43.4614 26.8709 42.3787 25.7815 41.3476 24.7441C41.1929 24.5366 41.1414 24.2772 41.1414 23.966C41.1414 21.6835 41.1414 19.453 41.1414 17.1706Z" fill="#327CC8"/>
<path d="M58.6703 17.2223C58.6703 19.4529 58.6703 21.6834 58.6703 23.9658C58.6703 24.329 58.5672 24.6402 58.3094 24.8996C57.3299 25.8333 56.4019 26.767 55.4738 27.7526C55.2161 28.0119 54.9583 28.1676 54.5974 28.1676C53.3601 28.1676 52.1227 28.1676 50.8854 28.1676C50.5245 28.1676 50.3698 28.0638 50.3698 27.7007C50.3698 26.767 50.3698 25.8851 50.3698 24.9514C50.3698 24.5883 50.473 24.4846 50.8338 24.4846C51.2463 24.4846 51.6072 24.4327 52.0196 24.4846C52.5352 24.5364 52.6383 24.329 52.6383 23.8621C52.6383 19.4529 52.6383 15.0436 52.6383 10.6344C52.6383 10.0638 52.793 9.9082 53.3601 9.9082C54.9067 9.96008 56.505 9.96008 58.0516 9.9082C58.5672 9.9082 58.7219 10.0119 58.7219 10.5307C58.6703 12.7612 58.6703 14.9918 58.6703 17.2223Z" fill="#327CC8"/>
<path d="M114.35 20.8531C114.35 21.9425 114.35 23.0318 114.35 24.0693C114.35 24.3805 114.247 24.588 114.041 24.7955C113.061 25.7811 112.03 26.7667 111.051 27.7522C110.845 28.0116 110.587 28.1154 110.226 28.1154C108.834 28.1154 107.442 28.1154 106.101 28.1154C105.689 28.1154 105.534 28.0116 105.586 27.5966C105.637 26.8185 105.637 26.0404 105.586 25.2105C105.586 24.7436 105.741 24.6399 106.153 24.6399C106.72 24.6917 107.287 24.6399 107.803 24.6399C108.164 24.6399 108.267 24.5361 108.267 24.173C108.267 21.9943 108.267 19.7638 108.267 17.5851C108.267 17.1701 108.112 17.1182 107.751 17.1182C107.184 17.1182 106.617 17.1182 105.998 17.1182C105.844 17.1182 105.637 17.1701 105.534 16.9626C105.38 16.6514 105.586 15.2508 105.792 14.9396C106.669 13.6946 107.854 13.2278 109.401 13.3834C110.226 13.4871 110.896 13.5909 111.463 14.2652C112.237 15.1471 113.113 15.977 113.938 16.7551C114.196 16.9626 114.247 17.222 114.247 17.5332C114.35 18.6744 114.35 19.7638 114.35 20.8531Z" fill="#327CC8"/>
<path d="M118.475 20.801C118.475 18.5704 118.475 16.3399 118.475 14.1612C118.475 13.6425 118.629 13.4869 119.145 13.5387C120.795 13.5906 122.393 13.5387 124.043 13.5387C124.455 13.5387 124.61 13.6425 124.61 14.1093C124.61 18.5704 124.61 23.0834 124.61 27.5445C124.61 27.9595 124.507 28.167 124.043 28.167C122.393 28.167 120.692 28.167 119.042 28.167C118.629 28.167 118.526 28.0114 118.526 27.6482C118.475 25.314 118.475 23.0834 118.475 20.801Z" fill="#327CC8"/>
<path d="M80.4268 26.2484C79.6019 24.8478 78.777 23.551 77.9521 22.2541C77.1272 20.8536 76.3023 19.5049 75.4774 18.1043C75.3228 17.8449 75.2197 17.5337 75.2197 17.2224C75.2197 14.94 75.2197 12.7095 75.2197 10.4271C75.2197 9.96019 75.3743 9.85645 75.7868 9.85645C77.1788 9.85645 78.5708 9.85645 80.0143 9.85645C80.3237 9.85645 80.5814 9.90832 80.5814 10.3233C80.5814 15.5625 80.5814 20.8017 80.5814 26.0409C80.5299 26.0928 80.4783 26.0928 80.4268 26.2484Z" fill="#327CC8"/>
<path d="M63.1556 11.7236C63.6712 12.5536 64.1352 13.3317 64.5992 14.0579C65.785 15.9772 66.9192 17.8965 68.105 19.8159C68.2596 20.0752 68.3628 20.3346 68.3628 20.6977C68.3628 22.9801 68.3628 25.2625 68.3628 27.545C68.3628 28.0118 68.2081 28.1674 67.7956 28.1156C66.4036 28.0637 65.0116 28.1156 63.6712 28.1156C63.3103 28.1156 63.1041 28.0637 63.1041 27.5968C63.1041 22.4095 63.1041 17.2222 63.1041 12.0349C63.1041 11.983 63.1556 11.9311 63.1556 11.7236Z" fill="#327CC8"/>
<path d="M121.465 11.7236C120.64 11.7236 119.815 11.7236 118.99 11.7236C118.629 11.7236 118.475 11.6717 118.475 11.2568C118.475 10.2712 118.475 9.28557 118.475 8.24811C118.475 7.885 118.629 7.78125 118.939 7.78125C120.64 7.78125 122.341 7.78125 124.094 7.78125C124.455 7.78125 124.61 7.93687 124.61 8.29998C124.61 9.28557 124.61 10.2712 124.61 11.2049C124.61 11.568 124.455 11.7236 124.094 11.6717C123.166 11.7236 122.29 11.7236 121.465 11.7236Z" fill="#327CC8"/>
<path d="M136.055 15.3546C136.055 14.8878 136.055 14.4209 136.055 13.954C136.055 13.6428 136.158 13.5391 136.468 13.5391C137.241 13.5391 138.014 13.5909 138.788 13.5391C139.149 13.5391 139.303 13.5909 139.303 14.0059C139.303 14.9396 139.303 15.8215 139.303 16.7552C139.303 17.0664 139.252 17.2221 138.891 17.2221C138.066 17.2221 137.241 17.2221 136.416 17.2221C136.107 17.2221 136.004 17.0664 136.004 16.7552C136.055 16.2883 136.055 15.8215 136.055 15.3546Z" fill="#327CC8"/>
</g>
<defs>
<clipPath id="clip0_6090_11153">
<rect width="30.8303" height="36" fill="white"/>
</clipPath>
<clipPath id="clip1_6090_11153">
<rect width="98.2135" height="20.3343" fill="white" transform="translate(41.1414 7.83301)"/>
</clipPath>
</defs>
</svg>
