<svg width="428" height="130" viewBox="0 0 428 130" fill="none" xmlns="http://www.w3.org/2000/svg">
<g clip-path="url(#clip0_7301_10658)">
<rect width="428" height="130" rx="12" fill="url(#paint0_linear_7301_10658)"/>
<path d="M179.364 72.8903C105.937 99.8757 41.7987 14.0533 -19.6855 41.4811C-56.3991 50.3287 -130.534 68.9973 -133.365 72.8903C-136.196 76.7832 -138.968 162.989 -140 205.605L405.396 295.409C442.552 249.549 506.336 144.733 464.226 92.3551C411.589 26.8824 252.791 45.9049 179.364 72.8903Z" fill="#327CC8" fill-opacity="0.2"/>
<path d="M253.292 73.7922C188.038 88.3595 97.9897 30.991 44.2867 51.3667C12.5342 57.2202 -11.4463 57.3237 -14.0288 60.467C-16.6114 63.6102 -22.5836 135.767 -25.2469 171.453L437.205 269.984C470.882 233.117 529.785 147.958 495.979 102.249C453.72 45.1141 319.23 59.0724 253.292 73.7922Z" fill="#327CC8" fill-opacity="0.2"/>
</g>
<defs>
<linearGradient id="paint0_linear_7301_10658" x1="356.5" y1="136.5" x2="155.893" y2="-171.693" gradientUnits="userSpaceOnUse">
<stop stop-color="#327CC8"/>
<stop offset="1" stop-color="#327CC8" stop-opacity="0"/>
</linearGradient>
<clipPath id="clip0_7301_10658">
<rect width="428" height="130" rx="12" fill="white"/>
</clipPath>
</defs>
</svg>
