<svg width="174" height="142" viewBox="0 0 174 142" fill="none" xmlns="http://www.w3.org/2000/svg">
<path d="M85.4192 141C124.334 141 155.894 109.678 155.894 71C155.894 32.322 124.334 1 85.4192 1C46.5039 1 14.9446 32.322 14.9446 71C14.9446 109.678 46.5039 141 85.4192 141Z" fill="#F1F3F9" stroke="#D6DCE8" stroke-width="2" stroke-miterlimit="10"/>
<path d="M154.093 37.5423C156.78 37.5423 158.958 35.3644 158.958 32.6779C158.958 29.9913 156.78 27.8135 154.093 27.8135C151.407 27.8135 149.229 29.9913 149.229 32.6779C149.229 35.3644 151.407 37.5423 154.093 37.5423Z" fill="#F1F3F9"/>
<path d="M149.229 21.7627C151.063 21.7627 152.551 20.2754 152.551 18.4407C152.551 16.606 151.063 15.1187 149.229 15.1187C147.394 15.1187 145.907 16.606 145.907 18.4407C145.907 20.2754 147.394 21.7627 149.229 21.7627Z" fill="#F1F3F9"/>
<path d="M14.6865 32.6782C16.5212 32.6782 18.0086 31.1909 18.0086 29.3562C18.0086 27.5215 16.5212 26.0342 14.6865 26.0342C12.8518 26.0342 11.3645 27.5215 11.3645 29.3562C11.3645 31.1909 12.8518 32.6782 14.6865 32.6782Z" fill="#F1F3F9"/>
<path d="M7.21197 105.763C10.6193 105.763 13.3815 103.001 13.3815 99.5933C13.3815 96.186 10.6193 93.4238 7.21197 93.4238C3.80466 93.4238 1.04248 96.186 1.04248 99.5933C1.04248 103.001 3.80466 105.763 7.21197 105.763Z" fill="#F1F3F9"/>
<path d="M150.348 52.4833V116.718C150.348 116.983 150.348 117.115 150.348 117.38C150.215 121.089 148.493 124.267 145.845 126.519C143.593 128.505 140.547 129.83 137.236 129.83H33.5332C31.2817 129.83 29.1626 129.3 27.3084 128.24C26.5138 127.843 25.7191 127.313 25.0569 126.651C23.6 125.459 22.2756 123.737 21.6134 121.883C21.0836 120.559 20.6863 119.102 20.6863 117.645V52.4833C20.6863 52.4833 26.1164 47.8478 33.9305 41.4905C42.0095 34.7359 52.6049 25.9947 61.8759 18.3131C67.1736 13.81 66.6439 14.3398 74.8553 7.45277C81.0801 2.15507 90.2186 2.15507 96.4434 7.45277C98.0328 8.7772 99.7545 10.3665 101.344 11.6909C104.787 14.4722 108.496 17.6509 112.469 20.9619C120.813 27.8489 129.951 35.5306 137.103 41.4905C144.388 47.4504 149.685 51.9535 150.348 52.4833Z" fill="#F1F3F9" stroke="#D6DCE8" stroke-width="2" stroke-miterlimit="10"/>
<path opacity="0.14" d="M137.103 42.5445V65.5895L114.456 79.2311L107.701 83.3368L93.3971 91.9456L86.6426 96.0513L83.7288 97.7731L80.9475 96.0513L74.5903 91.9456L60.9487 83.3368L54.5915 79.2311L33.6655 66.1193V42.677C41.7445 35.9224 52.3399 27.1812 61.6109 19.4995L112.336 22.0159C120.813 29.0354 129.951 36.5846 137.103 42.5445Z" fill="#989FB0"/>
<path d="M132.6 24.2678V64.7952L111.939 77.1124L105.847 80.8207L92.7349 88.5024L86.6426 92.2108L83.9937 93.6677L81.4773 92.2108L75.6498 88.5024L63.2002 80.8207L57.3728 77.1124L38.301 65.1925V24.2678C38.301 20.0296 41.7445 16.5861 46.1151 16.5861H124.786C129.024 16.4536 132.6 20.0296 132.6 24.2678Z" fill="white" stroke="#D6DCE8" stroke-width="2" stroke-miterlimit="10"/>
<path d="M150.348 53.6699V118.567C150.215 122.275 148.493 125.454 145.845 127.705C143.593 129.692 140.547 131.016 137.236 131.016H33.5332C31.2817 131.016 29.1626 130.487 27.3084 129.427C26.5138 129.03 25.7191 128.5 25.0569 127.838C23.6 126.646 22.2756 124.924 21.6134 123.07C21.0836 121.745 20.6863 120.289 20.6863 118.832V118.699V53.6699L78.6961 89.9592L83.729 93.1378L85.4507 92.0783L87.04 91.1512L150.348 53.6699Z" fill="#738DFF"/>
<path d="M145.977 127.705C143.725 129.692 140.679 131.016 137.368 131.016H33.5332C31.2817 131.016 29.1626 130.487 27.3084 129.427C26.5138 129.03 25.7191 128.5 25.0569 127.838C23.6 126.646 22.2756 124.924 21.6134 123.07C21.0836 121.745 20.6863 120.289 20.6863 118.832V118.699V53.6699L27.4409 57.7756L85.4507 92.0783L87.04 93.0054L87.1725 93.1378L139.222 123.865L145.977 127.705Z" fill="white" stroke="#D6DCE8" stroke-width="2" stroke-miterlimit="10"/>
<path d="M150.348 53.6699V118.567C150.215 122.275 148.493 125.454 145.845 127.705C143.593 129.692 140.547 131.016 137.236 131.016H33.5332C31.2817 131.016 29.1626 130.487 27.3084 129.427C26.5138 129.03 25.7191 128.5 25.0569 127.838L31.679 123.865L83.729 93.1378L85.4507 92.0783L87.04 91.1512L143.461 57.6432L150.348 53.6699Z" fill="white" stroke="#D6DCE8" stroke-width="2" stroke-miterlimit="10"/>
<path d="M134.719 99.0973H100.284C99.4896 99.0973 98.8274 98.4351 98.8274 97.6405C98.8274 96.8458 99.4896 96.1836 100.284 96.1836H134.719C135.514 96.1836 136.176 96.8458 136.176 97.6405C136.309 98.4351 135.646 99.0973 134.719 99.0973Z" fill="#D6DCE8"/>
<path d="M134.719 109.031H100.284C99.4896 109.031 98.8274 108.369 98.8274 107.574C98.8274 106.779 99.4896 106.117 100.284 106.117H134.719C135.514 106.117 136.176 106.779 136.176 107.574C136.309 108.369 135.646 109.031 134.719 109.031Z" fill="#D6DCE8"/>
<path d="M141.871 129.692L146.109 127.573C145.977 127.705 145.977 127.705 145.844 127.838C145.844 127.838 145.844 127.838 145.712 127.838L141.871 129.692Z" fill="#526DFF"/>
<path d="M82.6393 68.5687C81.6383 68.5687 80.6962 68.2008 79.9308 67.4038L66.9182 53.8538C65.4462 52.321 65.4462 49.7459 66.9182 48.213C68.3902 46.6802 70.8632 46.6802 72.3352 48.213L82.6393 58.9427L106.898 33.7434C108.37 32.2105 110.843 32.2105 112.315 33.7434C113.787 35.2762 113.787 37.8513 112.315 39.3841L85.3478 67.4038C84.6412 68.2008 83.6402 68.5687 82.6393 68.5687Z" fill="#D6DCE8" stroke="#AAB2C5" stroke-width="2" stroke-miterlimit="10"/>
</svg>
