<svg width="180" height="142" viewBox="0 0 180 142" fill="none" xmlns="http://www.w3.org/2000/svg">
<path d="M151.927 81.5352C151.927 98.1573 145.138 113.141 134.252 123.91C123.599 134.562 108.85 141 92.5793 141C76.4254 141 61.6763 134.445 50.907 123.91C40.0207 113.141 33.2314 98.1573 33.2314 81.5352C33.2314 48.6422 59.8034 22.0703 92.5793 22.0703C125.355 22.0703 151.927 48.7593 151.927 81.5352Z" fill="#F1F3F9" stroke="#D6DCE8" stroke-width="2" stroke-miterlimit="10"/>
<path d="M84.3489 28.1699L79.9465 43.6977L90.4845 51.0011L89.7435 68.8425L103.044 44.4318L96.8663 39.4958L103.932 28.1699H111.864L135.861 54.2736L136.797 129.658C136.797 132.233 134.69 134.223 132.115 134.223H58.6032C56.0279 134.223 53.9209 132.116 53.9209 129.658V32.7352C53.9209 30.1599 56.0279 28.1699 58.6032 28.1699H84.3489Z" fill="white" stroke="#D6DCE8" stroke-width="2" stroke-miterlimit="10" stroke-linejoin="round"/>
<path d="M146.776 42.5547C149.426 42.5547 151.575 40.406 151.575 37.7554C151.575 35.1048 149.426 32.9561 146.776 32.9561C144.125 32.9561 141.977 35.1048 141.977 37.7554C141.977 40.406 144.125 42.5547 146.776 42.5547Z" fill="#F1F3F9"/>
<path d="M153.799 23.8262C155.609 23.8262 157.077 22.3588 157.077 20.5486C157.077 18.7384 155.609 17.271 153.799 17.271C151.989 17.271 150.521 18.7384 150.521 20.5486C150.521 22.3588 151.989 23.8262 153.799 23.8262Z" fill="#F1F3F9"/>
<path d="M35.1038 42.438C36.9139 42.438 38.3814 40.9706 38.3814 39.1604C38.3814 37.3502 36.9139 35.8828 35.1038 35.8828C33.2936 35.8828 31.8262 37.3502 31.8262 39.1604C31.8262 40.9706 33.2936 42.438 35.1038 42.438Z" fill="#F1F3F9"/>
<path d="M15.087 105.649C18.4487 105.649 21.1739 102.924 21.1739 99.5621C21.1739 96.2003 18.4487 93.4751 15.087 93.4751C11.7252 93.4751 9 96.2003 9 99.5621C9 102.924 11.7252 105.649 15.087 105.649Z" fill="#F1F3F9"/>
<path d="M79.502 43.9727H65.3381C64.5188 43.9727 63.8164 43.2703 63.8164 42.4509C63.8164 41.6315 64.5188 40.9292 65.3381 40.9292H79.502C80.3214 40.9292 81.0238 41.6315 81.0238 42.4509C81.0238 43.2703 80.3214 43.9727 79.502 43.9727Z" fill="#D6DCE8"/>
<path d="M78.9167 52.4009H65.3381C64.5188 52.4009 63.8164 51.6986 63.8164 50.8792C63.8164 50.0598 64.5188 49.3574 65.3381 49.3574H78.7997C79.6191 49.3574 80.3214 50.0598 80.3214 50.8792C80.3214 51.6986 79.6191 52.4009 78.9167 52.4009Z" fill="#D6DCE8"/>
<path d="M110.874 28.1699V49.006C110.874 51.9325 113.449 54.2736 116.376 54.2736H134.871" fill="#D6DCE8"/>
<path d="M80.3808 21.2108L75.9541 14.5474" stroke="#A2ABBE" stroke-width="2"/>
<path d="M92.186 17.879L92.7061 1" stroke="#A2ABBE" stroke-width="2"/>
<path d="M102.771 21.3678L109.837 6.03027" stroke="#A2ABBE" stroke-width="2"/>
<path d="M78.7323 105.624C78.2405 105.624 77.8472 105.427 77.4538 105.132C76.7654 104.444 76.7654 103.264 77.4538 102.575C81.9776 98.15 87.9765 95.6914 94.3687 95.6914C100.761 95.6914 106.76 98.15 111.284 102.575C111.972 103.264 111.972 104.444 111.284 105.132C110.595 105.821 109.415 105.821 108.727 105.132C104.891 101.297 99.7776 99.2317 94.3687 99.2317C88.9599 99.2317 83.8461 101.297 80.0107 105.132C79.6173 105.427 79.224 105.624 78.7323 105.624Z" fill="#AAB2C5"/>
<path d="M84.9278 79.2684L87.2881 76.9082C87.9765 76.2198 87.9765 75.0397 87.2881 74.3513C86.5997 73.6629 85.4196 73.6629 84.7312 74.3513L82.3709 76.7115L80.0107 74.3513C79.3223 73.6629 78.1422 73.6629 77.4538 74.3513C76.7654 75.0397 76.7654 76.2198 77.4538 76.9082L79.814 79.2684L77.4538 81.6286C76.7654 82.317 76.7654 83.4971 77.4538 84.1855C77.8472 84.5789 78.2405 84.6772 78.7323 84.6772C79.224 84.6772 79.6173 84.4806 80.0107 84.1855L82.3709 81.8253L84.7312 84.1855C85.1245 84.5789 85.5179 84.6772 86.0096 84.6772C86.5013 84.6772 86.8947 84.4806 87.2881 84.1855C87.9765 83.4971 87.9765 82.317 87.2881 81.6286L84.9278 79.2684Z" fill="#AAB2C5"/>
<path d="M108.825 79.2684L111.186 76.9082C111.874 76.2198 111.874 75.0397 111.186 74.3513C110.497 73.6629 109.317 73.6629 108.629 74.3513L106.268 76.7115L103.908 74.3513C103.22 73.6629 102.04 73.6629 101.351 74.3513C100.663 75.0397 100.663 76.2198 101.351 76.9082L103.711 79.2684L101.351 81.6286C100.663 82.317 100.663 83.4971 101.351 84.1855C101.745 84.5789 102.138 84.6772 102.63 84.6772C103.121 84.6772 103.515 84.4806 103.908 84.1855L106.268 81.8253L108.629 84.1855C109.022 84.5789 109.415 84.6772 109.907 84.6772C110.399 84.6772 110.792 84.4806 111.186 84.1855C111.874 83.4971 111.874 82.317 111.186 81.6286L108.825 79.2684Z" fill="#AAB2C5"/>
</svg>
