<svg width="164" height="141" viewBox="0 0 164 141" fill="none" xmlns="http://www.w3.org/2000/svg">
<path d="M142.63 80.6511C142.63 101.814 131.588 120.447 114.796 130.799C113.876 131.259 112.955 131.949 112.265 132.409C103.754 137.24 93.8625 140 83.511 140C73.8496 140 64.6482 137.7 56.597 133.559C37.2741 123.668 24.1621 103.655 24.1621 80.6511C24.1621 47.9862 50.6161 21.5322 83.281 21.5322C94.0926 21.5322 103.984 24.2926 112.725 29.3534C118.706 32.5739 123.767 36.9445 128.138 42.2353C129.058 43.1555 129.978 44.3056 130.668 45.4558C138.259 55.1173 142.63 67.3091 142.63 80.6511Z" fill="#F1F3F9" stroke="#D6DCE8" stroke-width="2" stroke-miterlimit="10"/>
<path d="M71.3189 120.217C70.1687 121.137 68.7885 121.827 67.4083 122.287C63.0376 123.438 58.2069 121.827 55.2165 118.147L24.1618 77.4306C20.2512 72.3699 21.1714 65.0088 26.4622 61.0982L26.6922 60.8682C28.7625 59.488 31.0628 58.7979 33.3632 58.7979C36.8137 58.7979 40.2642 60.4081 42.5646 63.3985L73.3892 104.115C77.2998 109.175 76.3796 116.537 71.3189 120.217Z" fill="#7F3F98"/>
<path d="M68.5584 21.0718V47.3994C69.4657 43.135 72.9598 39.8364 77.2998 39.2446C77.5065 39.2446 77.7133 39.1981 77.941 39.147C78.2199 39.0843 78.5301 39.0146 78.91 39.0146C81.9004 39.0146 84.4308 40.1647 86.2711 42.005C88.1114 44.0753 89.2615 46.6057 89.2615 49.5962V54.3123C90.1688 50.0921 93.6629 46.9346 98.0029 46.1455C98.0514 46.1504 98.0999 46.1557 98.1483 46.1613L98.2328 46.1456C98.4396 46.1456 98.6464 46.0992 98.8741 46.048C99.153 45.9853 99.4632 45.9156 99.8431 45.9156C102.834 45.9156 105.364 47.0658 107.204 48.906C108.814 50.9764 110.195 53.5067 110.195 56.4972V63.6282L110.195 36.254C110.195 33.4936 111.345 30.9632 112.955 29.1229C114.565 27.2826 116.866 26.1325 119.396 25.9024H120.776C126.297 25.9024 130.898 30.5031 130.898 36.254V82.0308C130.898 99.891 123.429 107.188 118.664 111.842C116.433 114.022 114.795 115.622 114.795 117.456V130.798C114.092 131.15 113.39 131.635 112.789 132.05L112.787 132.052C112.602 132.18 112.427 132.3 112.265 132.408C103.754 137.239 93.8623 140 83.5107 140C73.8493 140 64.6479 137.699 56.5967 133.559V119.588C56.1038 119.151 55.6416 118.669 55.2165 118.146L47.6253 108.193V108.485L24.1618 77.4303C23.1841 76.165 22.5084 74.756 22.1274 73.2931C21.5323 71.008 21.6563 68.5913 22.4721 66.3856C23.2231 64.3552 24.5602 62.5035 26.4622 61.0977L26.6922 60.8676C26.692 60.8677 26.6924 60.8676 26.6922 60.8676C28.7624 59.4876 31.063 58.7975 33.3632 58.7975C36.8137 58.7975 40.2642 60.4077 42.5646 63.3982L47.3953 69.766V21.0718C47.3953 15.781 51.3059 11.4103 56.3667 10.7202C56.3874 10.7223 56.4081 10.7245 56.4288 10.7267C56.4516 10.7291 56.4744 10.7317 56.4971 10.7343C56.5302 10.7294 56.5634 10.7247 56.5966 10.7202H58.2069C61.1973 10.7202 63.7277 11.8704 65.568 13.7107C67.4083 15.5509 68.5584 18.0813 68.5584 21.0718Z" fill="white"/>
<path d="M26.6922 60.8676L26.4622 61.0977C24.5602 62.5035 23.2231 64.3552 22.4721 66.3856C21.6563 68.5913 21.5323 71.008 22.1274 73.2931C22.5084 74.756 23.1841 76.165 24.1618 77.4303L47.6253 108.485V108.193L55.2165 118.146C55.6416 118.669 56.1038 119.151 56.5967 119.588V133.559C64.6479 137.699 73.8493 140 83.5107 140C93.8623 140 103.754 137.239 112.265 132.408C112.427 132.3 112.602 132.18 112.787 132.052L112.789 132.05C113.39 131.635 114.092 131.15 114.795 130.798V117.456C114.795 115.622 116.433 114.022 118.664 111.842C123.429 107.188 130.898 99.891 130.898 82.0308V36.254C130.898 30.5031 126.297 25.9024 120.776 25.9024H119.396C116.866 26.1325 114.565 27.2826 112.955 29.1229C111.345 30.9632 110.195 33.4936 110.195 36.254L110.195 63.6282V56.4972C110.195 53.5067 108.814 50.9764 107.204 48.906C105.364 47.0658 102.834 45.9156 99.8431 45.9156C99.4632 45.9156 99.153 45.9853 98.8741 46.048C98.6464 46.0992 98.4396 46.1456 98.2328 46.1456L98.1483 46.1613C98.0999 46.1557 98.0514 46.1504 98.0029 46.1455C93.6629 46.9346 90.1688 50.0921 89.2615 54.3123V49.5962C89.2615 46.6057 88.1114 44.0753 86.2711 42.005C84.4308 40.1647 81.9004 39.0146 78.91 39.0146C78.5301 39.0146 78.2199 39.0843 77.941 39.147C77.7133 39.1981 77.5066 39.2446 77.2998 39.2446C72.9598 39.8364 69.4657 43.135 68.5584 47.3994V21.0718C68.5584 18.0813 67.4083 15.5509 65.568 13.7107C63.7277 11.8704 61.1973 10.7202 58.2069 10.7202H56.5966C56.5634 10.7247 56.5302 10.7294 56.4971 10.7343C56.4744 10.7317 56.4516 10.7291 56.4288 10.7267C56.4081 10.7245 56.3874 10.7223 56.3667 10.7202C51.3059 11.4103 47.3953 15.781 47.3953 21.0718V69.766L42.5646 63.3982C40.2642 60.4077 36.8137 58.7975 33.3632 58.7975C31.063 58.7975 28.7624 59.4876 26.6922 60.8676ZM26.6922 60.8676C26.692 60.8677 26.6924 60.8676 26.6922 60.8676Z" stroke="#D6DCE8" stroke-width="2" stroke-miterlimit="10"/>
<path d="M89.7872 16.175C92.8362 16.175 95.308 13.7032 95.308 10.6541C95.308 7.60506 92.8362 5.1333 89.7872 5.1333C86.7381 5.1333 84.2664 7.60506 84.2664 10.6541C84.2664 13.7032 86.7381 16.175 89.7872 16.175Z" fill="#F1F3F9"/>
<path d="M158.041 70.7594C161.09 70.7594 163.562 68.2877 163.562 65.2386C163.562 62.1895 161.09 59.7178 158.041 59.7178C154.992 59.7178 152.521 62.1895 152.521 65.2386C152.521 68.2877 154.992 70.7594 158.041 70.7594Z" fill="#F1F3F9"/>
<path d="M147.664 5.78759H141.876V0H136.916V5.78759H131.128V10.9137H136.916V16.7013H141.876V10.9137H147.664V5.78759Z" fill="url(#paint0_linear_6128_11774)"/>
<path d="M16.31 33.3186H10.6843V27.6929H5.86227V33.3186H0.4375V38.1406H5.86227V43.5654H10.6843V38.1406H16.31V33.3186Z" fill="url(#paint1_linear_6128_11774)"/>
<path d="M68.5959 45.3184V58.4906" stroke="#D6DCE8" stroke-width="2" stroke-miterlimit="10"/>
<path d="M89.2458 52.4253V65.5975" stroke="#D6DCE8" stroke-width="2" stroke-miterlimit="10"/>
<defs>
<linearGradient id="paint0_linear_6128_11774" x1="139.397" y1="0.580185" x2="139.397" y2="9.95448" gradientUnits="userSpaceOnUse">
<stop stop-color="#B0BACC"/>
<stop offset="1" stop-color="#969EAE"/>
</linearGradient>
<linearGradient id="paint1_linear_6128_11774" x1="8.375" y1="28.2443" x2="8.375" y2="37.1533" gradientUnits="userSpaceOnUse">
<stop stop-color="#B0BACC"/>
<stop offset="1" stop-color="#969EAE"/>
</linearGradient>
</defs>
</svg>
