<svg width="20" height="16" viewBox="0 0 20 16" fill="none" xmlns="http://www.w3.org/2000/svg">
<path d="M19.7501 7.99978C19.7501 8.41378 19.4141 8.74978 19.0001 8.74978H2.81115L8.53112 14.4698C8.82412 14.7628 8.82412 15.2378 8.53112 15.5308C8.38512 15.6768 8.19309 15.7508 8.00109 15.7508C7.80909 15.7508 7.61706 15.6778 7.47106 15.5308L0.471062 8.53079C0.402063 8.46179 0.347197 8.37889 0.309197 8.28689C0.233197 8.10389 0.233197 7.89689 0.309197 7.71389C0.347197 7.62189 0.402063 7.53875 0.471062 7.46975L7.47106 0.46975C7.76406 0.17675 8.2391 0.17675 8.5321 0.46975C8.8251 0.76275 8.8251 1.23779 8.5321 1.53079L2.81213 7.25076H19.0001C19.4141 7.24976 19.7501 7.58578 19.7501 7.99978Z" fill="#327CC8"/>
</svg>
