<svg width="20" height="20" viewBox="0 0 20 20" fill="none" xmlns="http://www.w3.org/2000/svg">
<path fill-rule="evenodd" clip-rule="evenodd" d="M7.5803 19.7014C12.9386 21.0372 18.3653 17.7764 19.7011 12.4197C21.037 7.06223 17.7753 1.63556 12.417 0.300564C7.06197 -1.0361 1.6353 2.22556 0.3003 7.5839C-1.03553 12.9406 2.2253 18.3672 7.58113 19.7022L7.5803 19.7014ZM11.1486 5.51806C12.6103 5.6214 13.7736 6.04973 13.9261 7.3864C14.0395 8.36473 13.6395 8.96056 12.9903 9.30556C14.0736 9.54556 14.7611 10.1747 14.6528 11.6147C14.5186 13.4022 13.1961 13.9047 11.2978 14.0464L11.3295 15.9214L10.1995 15.9422L10.167 14.0922C9.87447 14.0972 9.57447 14.1006 9.26363 14.0989L9.29697 15.9572L8.16697 15.9772L8.13363 14.0989L7.81447 14.1014C7.6528 14.1022 7.48947 14.1031 7.32613 14.1064L5.85447 14.1314L6.0553 12.7781C6.0553 12.7781 6.89197 12.7764 6.87697 12.7639C7.19697 12.7572 7.2778 12.5264 7.2953 12.3814L7.24447 9.41723L7.3253 9.41556H7.36363C7.3238 9.411 7.28372 9.40905 7.24363 9.40973L7.20697 7.29306C7.15947 7.06473 7.00613 6.8014 6.54863 6.80973C6.56113 6.79306 5.72697 6.8239 5.72697 6.8239L5.7053 5.61723L7.2653 5.59056V5.5964C7.49947 5.59223 7.7403 5.5839 7.98447 5.57473L7.9528 3.71723L9.0828 3.69806L9.11447 5.51806C9.41613 5.50723 9.71947 5.49556 10.017 5.49056L9.9853 3.68223L11.1161 3.66223L11.1486 5.51973V5.51806Z" fill="#F5841F"/>
</svg>
