<svg width="18" height="18" viewBox="0 0 18 18" fill="none" xmlns="http://www.w3.org/2000/svg">
<g clip-path="url(#clip0_5530_24856)">
<path fill-rule="evenodd" clip-rule="evenodd" d="M9 0C13.9709 0 18 4.02909 18 9C18 13.9709 13.9709 18 9 18C4.02909 18 0 13.9709 0 9C0 4.02909 4.02909 0 9 0Z" fill="#F0B90B"/>
<path d="M4.9462 8.99964L4.95269 11.3794L6.97481 12.5694V13.9626L3.76928 12.0826V8.30373L4.9462 8.99964ZM4.9462 6.61983V8.00661L3.76855 7.30998V5.9232L4.9462 5.22656L6.12961 5.9232L4.9462 6.61983ZM7.81928 5.9232L8.99692 5.22656L10.1803 5.9232L8.99692 6.61983L7.81928 5.9232Z" fill="white"/>
<path d="M5.79736 10.8862V9.49291L6.97501 10.1895V11.5763L5.79736 10.8862ZM7.81948 13.0684L8.99712 13.765L10.1805 13.0684V14.4552L8.99712 15.1518L7.81948 14.4552V13.0684ZM11.8695 5.9232L13.0471 5.22656L14.2305 5.9232V7.30998L13.0471 8.00661V6.61983L11.8695 5.9232ZM13.0471 11.3794L13.0536 8.99964L14.2313 8.303V12.0819L11.0257 13.9619V12.5686L13.0471 11.3794Z" fill="white"/>
<path d="M12.2025 10.8864L11.0249 11.5766V10.1898L12.2025 9.49316V10.8864Z" fill="white"/>
<path d="M12.2027 7.11328L12.2091 8.50655L10.1813 9.69645V12.082L9.00361 12.7722L7.82597 12.082V9.69645L5.79808 8.50655V7.11328L6.98078 6.41665L8.9964 7.61232L11.0243 6.41665L12.2077 7.11328H12.2027ZM5.79736 4.73419L8.99712 2.84766L12.2027 4.73419L11.025 5.43083L8.99712 4.23516L6.97501 5.43083L5.79736 4.73419Z" fill="white"/>
</g>
<defs>
<clipPath id="clip0_5530_24856">
<rect width="18" height="18" fill="white"/>
</clipPath>
</defs>
</svg>
