<svg width="19" height="18" viewBox="0 0 19 18" fill="none" xmlns="http://www.w3.org/2000/svg">
<mask id="mask0_7201_10690" style="mask-type:luminance" maskUnits="userSpaceOnUse" x="0" y="0" width="19" height="18">
<path d="M0.5 0H18.5V18H0.5V0Z" fill="white"/>
</mask>
<g mask="url(#mask0_7201_10690)">
<path d="M9.03905 11.4563C9.8723 11.4533 11.694 11.4466 11.673 10.2878C11.6528 9.1028 9.90305 9.17405 9.0503 9.2093C8.95505 9.21305 8.8703 9.2168 8.8013 9.21755L8.8403 11.4578C8.89655 11.4563 8.96405 11.4563 9.03905 11.4563ZM8.95055 8.19155C9.6458 8.1908 11.163 8.1893 11.145 7.13555C11.1255 6.0578 9.6683 6.12155 8.95655 6.15305C8.8763 6.1568 8.80655 6.1598 8.74805 6.16055L8.7833 8.1923L8.95055 8.19155Z" fill="#F5841F"/>
<path fill-rule="evenodd" clip-rule="evenodd" d="M7.32237 17.7314C12.1449 18.9336 17.0289 15.9989 18.2311 11.1779C19.4334 6.3561 16.4979 1.47211 11.6754 0.270606C6.85587 -0.932394 1.97187 2.00311 0.770368 6.8256C-0.431882 11.6466 2.50287 16.5306 7.32312 17.7321L7.32237 17.7314ZM10.5339 4.96636C11.8494 5.05936 12.8964 5.44485 13.0336 6.64785C13.1356 7.52835 12.7756 8.0646 12.1914 8.3751C13.1664 8.5911 13.7851 9.15735 13.6876 10.4534C13.5669 12.0621 12.3766 12.5144 10.6681 12.6419L10.6966 14.3294L9.67962 14.3481L9.65037 12.6831C9.38712 12.6876 9.11712 12.6906 8.83737 12.6891L8.86737 14.3616L7.85037 14.3796L7.82037 12.6891L7.53312 12.6914C7.38762 12.6921 7.24062 12.6929 7.09362 12.6959L5.76912 12.7184L5.94987 11.5004C5.94987 11.5004 6.70287 11.4989 6.68937 11.4876C6.97737 11.4816 7.05012 11.2739 7.06587 11.1434L7.02012 8.47561L7.09287 8.4741H7.12737C7.09152 8.47 7.05544 8.46824 7.01937 8.46885L6.98637 6.56386C6.94362 6.35836 6.80562 6.12135 6.39387 6.12885C6.40512 6.11385 5.65437 6.1416 5.65437 6.1416L5.63487 5.0556L7.03887 5.03161V5.03686C7.24962 5.03311 7.46637 5.02561 7.68612 5.01736L7.65762 3.34561L8.67462 3.32836L8.70312 4.96636C8.97462 4.9566 9.24762 4.94611 9.51537 4.94161L9.48687 3.31411L10.5046 3.29611L10.5339 4.96786V4.96636Z" fill="#F5841F"/>
</g>
</svg>
