<svg width="24" height="24" viewBox="0 0 24 24" fill="currentColor" xmlns="http://www.w3.org/2000/svg">
<path d="M19.9309 8.36934C19.5829 8.47234 19.2129 8.51234 18.8269 8.49434C17.0639 8.41634 15.5819 6.93333 15.5039 5.16933C15.4869 4.78433 15.5259 4.41434 15.6299 4.06734C15.6739 3.91834 15.613 3.75834 15.47 3.69734C13.953 3.05534 12.217 2.82234 10.399 3.13734C7.18897 3.69234 4.47713 6.03534 3.46513 9.13234C2.69713 11.4823 2.93305 13.8213 3.83305 15.7563C4.04305 16.1963 4.04311 16.7063 3.89311 17.1763L3.05302 19.6753C2.78902 20.4603 3.53804 21.2093 4.32304 20.9453L6.82304 20.1053C7.29304 19.9553 7.80296 19.9553 8.24296 20.1653C10.177 21.0643 12.5131 21.3013 14.8621 20.5353C17.9601 19.5243 20.3041 16.8133 20.8611 13.6023C21.1761 11.7843 20.9431 10.0463 20.3011 8.52833C20.2401 8.38633 20.0799 8.32534 19.9309 8.36934ZM8.02006 13.0003C7.46806 13.0003 7.01493 12.5523 7.01493 12.0003C7.01493 11.4483 7.45805 11.0003 8.01005 11.0003H8.02006C8.57306 11.0003 9.02006 11.4483 9.02006 12.0003C9.02006 12.5523 8.57206 13.0003 8.02006 13.0003ZM12.0201 13.0003C11.4681 13.0003 11.0149 12.5523 11.0149 12.0003C11.0149 11.4483 11.4581 11.0003 12.0101 11.0003H12.0201C12.5731 11.0003 13.0201 11.4483 13.0201 12.0003C13.0201 12.5523 12.5721 13.0003 12.0201 13.0003ZM16.0201 13.0003C15.4681 13.0003 15.0149 12.5523 15.0149 12.0003C15.0149 11.4483 15.4581 11.0003 16.0101 11.0003H16.0201C16.5731 11.0003 17.0201 11.4483 17.0201 12.0003C17.0201 12.5523 16.5721 13.0003 16.0201 13.0003ZM17.001 5.00032C17.001 3.89532 17.897 3.00032 19.001 3.00032C20.105 3.00032 21.001 3.89532 21.001 5.00032C21.001 6.10532 20.105 7.00032 19.001 7.00032C17.897 7.00032 17.001 6.10532 17.001 5.00032Z" fill="currentColor"/>
<circle cx="19" cy="5" r="2" fill="#246CF9"/>
</svg>
