<svg width="24" height="24" viewBox="0 0 24 24" fill="none" xmlns="http://www.w3.org/2000/svg">
<path opacity="0.4" d="M12 22C17.5228 22 22 17.5228 22 12C22 6.47715 17.5228 2 12 2C6.47715 2 2 6.47715 2 12C2 17.5228 6.47715 22 12 22Z" fill="#25314C"/>
<path d="M15 15.75C14.808 15.75 14.616 15.677 14.47 15.53L11.47 12.53C11.329 12.389 11.25 12.198 11.25 12V7C11.25 6.586 11.586 6.25 12 6.25C12.414 6.25 12.75 6.586 12.75 7V11.689L15.53 14.469C15.823 14.762 15.823 15.237 15.53 15.53C15.384 15.677 15.192 15.75 15 15.75Z" fill="#25314C"/>
</svg>
