<svg width="24" height="24" viewBox="0 0 24 24" fill="none" xmlns="http://www.w3.org/2000/svg">
<g id="times-circle">
<path id="Vector" opacity="0.4" d="M12 22C17.5228 22 22 17.5228 22 12C22 6.47715 17.5228 2 12 2C6.47715 2 2 6.47715 2 12C2 17.5228 6.47715 22 12 22Z" fill="#B7B8BF"/>
<path id="Vector_2" d="M13.061 12L15.531 9.53005C15.824 9.23705 15.824 8.76202 15.531 8.46902C15.238 8.17602 14.763 8.17602 14.47 8.46902L12 10.939L9.53002 8.46902C9.23702 8.17602 8.76202 8.17602 8.46902 8.46902C8.17602 8.76202 8.17602 9.23705 8.46902 9.53005L10.939 12L8.46902 14.47C8.17602 14.763 8.17602 15.238 8.46902 15.531C8.61502 15.677 8.80702 15.751 8.99902 15.751C9.19102 15.751 9.38302 15.678 9.52902 15.531L11.999 13.061L14.469 15.531C14.615 15.677 14.807 15.751 14.999 15.751C15.191 15.751 15.383 15.678 15.529 15.531C15.822 15.238 15.822 14.763 15.529 14.47L13.061 12Z" fill="#B7B8BF"/>
</g>
</svg>
