<svg width="24" height="24" viewBox="0 0 24 24" fill="none" xmlns="http://www.w3.org/2000/svg">
<path opacity="0.4" d="M7.5 18.0096C7.5 18.7396 7.72001 19.3996 8.13 19.9696C5.45 19.7996 3 18.8196 3 17.0096V16.1296C4.05 16.9496 5.6 17.4996 7.5 17.6796V18.0096ZM7.53003 13.9396C5.61003 13.7696 4.05 13.2196 3 12.3896V13.2697C3 14.9397 5.08 15.8996 7.5 16.1796V14.2697C7.5 14.1697 7.51003 14.0696 7.53003 13.9696C7.53003 13.9596 7.52998 13.9496 7.53998 13.9396H7.53003ZM9 10.4796C6.41 10.4796 4.31 9.87961 3 8.84961V9.52966C3 11.3297 5.41001 12.3096 8.07001 12.4796C8.73001 11.5196 9.92 10.7497 11.44 10.2797C10.69 10.4097 9.87 10.4796 9 10.4796ZM12.74 9.9696C13.44 9.8496 14.19 9.77966 14.98 9.77966C14.99 9.69966 15 9.61966 15 9.52966V8.84961C14.4 9.31961 13.64 9.6996 12.74 9.9696Z" fill="#727688"/>
<path d="M9 8.97998C12.3137 8.97998 15 7.64132 15 5.98999C15 4.33866 12.3137 3 9 3C5.68629 3 3 4.33866 3 5.98999C3 7.64132 5.68629 8.97998 9 8.97998Z" fill="#727688"/>
<path opacity="0.4" d="M21 17.0303V18.0103C21 20.0003 18 21.0002 15 21.0002C12 21.0002 9 20.0003 9 18.0103V17.0303C10.35 18.1003 12.49 18.7603 15 18.7603C17.51 18.7603 19.65 18.1003 21 17.0303Z" fill="#727688"/>
<path d="M21 14.2703C21 15.9203 18.31 17.2603 15 17.2603C11.69 17.2603 9 15.9203 9 14.2703C9 12.6203 11.69 11.2803 15 11.2803C18.31 11.2803 21 12.6203 21 14.2703Z" fill="#727688"/>
</svg>
