<svg width="20" height="20" viewBox="0 0 20 20" fill="none" xmlns="http://www.w3.org/2000/svg">
<g clip-path="url(#clip0_6072_32667)">
<path d="M0 13.4412C1.90157 11.8708 2.97539 9.79225 5.12304 8.03705C6.21924 7.13636 7.24832 6.81303 7.24832 6.81303C7.24832 6.81303 7.38255 0.646751 8.38926 0.508183C9.39597 0.369615 11.6107 4.64213 11.6107 4.64213L12.2371 4.68832C12.2371 4.68832 13.9597 0.254141 15.2349 9.94923e-05C16.5101 -0.230847 15.5928 6.32804 15.5928 6.32804C15.5928 6.32804 16.5101 6.85922 16.3087 8.77608C16.443 9.28416 19.4407 11.1086 19.9329 12.1479C20.4251 13.1872 17.3602 15.1964 17.3602 15.1964C17.3602 15.1964 13.1096 14.2726 12.9306 13.88C12.3266 14.2495 11.6555 14.4805 11.8345 14.9193C12.1029 17.9216 12.0582 19.492 11.745 19.8384C11.4318 20.1618 2.25951 20.6929 0 13.4412Z" fill="#727688"/>
</g>
<defs>
<clipPath id="clip0_6072_32667">
<rect width="20" height="20" fill="white"/>
</clipPath>
</defs>
</svg>
