<svg width="24" height="24" viewBox="0 0 24 24" fill="none" xmlns="http://www.w3.org/2000/svg">
<g clip-path="url(#clip0_6539_13079)">
<path d="M20.7564 6.6615C21.0454 7.0476 20.7826 7.56043 20.7535 7.99368C20.7389 8.23978 20.5068 8.36062 20.3447 8.50798C19.809 8.70987 19.2747 8.92061 18.7288 9.0945C18.612 9.42754 18.6266 9.80921 18.5127 10.154C18.4456 10.1791 18.3784 10.2027 18.3098 10.2263C17.0675 10.1393 15.7742 9.7989 14.8239 8.9486C14.6356 8.38272 14.8706 7.75348 15.1421 7.24507C15.4268 7.05055 15.7392 6.9076 16.0399 6.74108C16.2676 6.62319 16.5493 6.66298 16.7625 6.50824C17.2179 6.17962 17.777 5.96594 18.3419 6.00573C18.755 6.03962 19.0105 6.43751 19.4017 6.53182C19.8455 6.62024 20.3374 6.45667 20.7564 6.6615ZM16.5917 8.49472C16.3683 8.83955 16.0048 9.04587 15.6545 9.23744C16.1187 9.2286 16.5522 9.00166 16.8296 8.62882C16.8471 8.66566 16.8822 8.74082 16.8997 8.77914C17.1289 8.30462 17.1055 7.77558 17.1493 7.26423C16.9318 7.66064 16.869 8.12778 16.5917 8.49472Z" fill="#030303"/>
<path d="M2.3867 8.94294C2.28305 8.82505 2.08014 8.86041 2.01592 9.00336C1.92395 9.22735 1.94001 9.47787 1.88892 9.71365C1.98088 10.0305 2.14291 10.337 2.15313 10.6745C2.16043 10.9884 2.42465 11.2197 2.44655 11.5307C2.54873 11.6662 2.65237 11.8003 2.75602 11.933C2.71076 11.9403 2.62026 11.958 2.57355 11.9654C2.85236 12.1894 3.21438 12.3323 3.42021 12.6359C3.50488 12.6816 3.58954 12.7287 3.67275 12.7744C3.75887 12.8422 3.84062 12.9203 3.94572 12.9557C4.42599 13.1266 4.91355 13.274 5.41571 13.3609C5.08434 13.7824 4.80845 14.2481 4.5705 14.7285C4.43767 14.9849 4.3749 15.3194 4.1063 15.4727C3.7399 15.6141 3.38809 15.3165 3.02169 15.3518C2.67427 15.4358 2.63778 15.8779 2.35166 16.0489C2.03343 16.2449 1.67287 16.376 1.3853 16.6236C0.864161 17.0495 0.322588 17.4989 0.0233358 18.1179C-0.00877906 18.3227 -0.046733 18.6115 0.188289 18.7117C0.534254 18.7899 0.92693 18.7515 1.2218 18.5393C1.3926 18.3581 1.39843 18.056 1.63054 17.9248C1.9765 17.7023 2.21736 17.3501 2.56625 17.132C2.74872 17.0067 2.9779 17.0465 3.18081 17.0819C3.72384 17.1895 4.26103 16.9817 4.80261 16.9699C5.36754 16.9507 5.92225 16.8284 6.48426 16.7827C7.14553 16.1358 7.9703 15.6922 8.8082 15.3238C9.53225 15.0232 10.3278 15.2045 11.0752 15.2973C11.0621 15.3327 11.0358 15.4049 11.0212 15.4402C11.3467 15.4344 11.6737 15.4226 11.9992 15.4285C11.9774 15.4815 11.9336 15.5876 11.9117 15.6407C12.1876 15.5242 12.4722 15.427 12.7671 15.3769C12.7642 15.4123 12.7554 15.483 12.7525 15.5184C13.3262 15.0674 14.0707 14.9849 14.7261 14.7123C15.4749 14.45 16.2107 14.1479 16.9712 13.9253C17.0311 13.9813 17.0895 14.0373 17.1493 14.0948C17.3945 14.5443 17.9974 14.279 18.3945 14.4706C18.5945 14.4735 18.7507 14.3276 18.9346 14.2702C19.2703 14.167 19.5594 13.9548 19.8922 13.8443C20.6922 13.5613 21.549 13.5112 22.3621 13.2843C22.6993 13.1856 23.0453 13.1266 23.3942 13.0809C23.5723 13.078 23.6438 12.8835 23.7504 12.7685C23.7912 12.686 23.8336 12.6035 23.8759 12.521C23.9606 12.3176 24.0029 12.101 24.0029 11.8814C23.7504 11.5675 23.219 11.5896 22.9708 11.8976C22.6906 12.1997 22.2556 12.2645 21.8643 12.2601C21.0089 12.2012 20.1491 12.2424 19.2922 12.21C18.9798 12.1923 18.8455 11.8681 18.6748 11.653C18.6164 11.5159 18.5988 11.3406 18.4441 11.2787C18.4558 11.0989 18.4616 10.9191 18.4646 10.7378C18.4324 10.7334 18.3697 10.7246 18.339 10.7216C17.0252 10.6096 15.6428 10.2943 14.6312 9.38945C14.6006 9.36882 14.5378 9.32756 14.5071 9.3084C13.7918 9.98333 12.9145 10.48 11.9715 10.7408C10.8431 11.0665 9.63589 10.9397 8.52209 11.3332C7.44332 11.6515 6.39375 12.2881 5.23324 12.1245C4.55737 12.0995 4.02309 11.6058 3.60998 11.1107C3.21292 10.6155 2.91513 10.0467 2.67135 9.46166C2.58522 9.27893 2.51661 9.0903 2.3867 8.94294Z" fill="#030303"/>
</g>
<defs>
<clipPath id="clip0_6539_13079">
<rect width="24" height="12.75" fill="white" transform="translate(0 6)"/>
</clipPath>
</defs>
</svg>
