<svg width="131" height="101" viewBox="0 0 131 101" fill="none" xmlns="http://www.w3.org/2000/svg">
<path d="M66.509 100C92.9991 100 114.475 78.5242 114.475 51.9395C114.475 25.3548 92.9045 3.87891 66.509 3.87891C40.0189 3.87891 18.543 25.3548 18.543 51.9395C18.543 78.5242 40.0189 100 66.509 100Z" fill="#F1F3F9" stroke="#D6DCE8" stroke-width="2" stroke-miterlimit="10"/>
<path d="M111.353 20.4356C113.495 20.4356 115.232 18.6989 115.232 16.5566C115.232 14.4144 113.495 12.6777 111.353 12.6777C109.211 12.6777 107.474 14.4144 107.474 16.5566C107.474 18.6989 109.211 20.4356 111.353 20.4356Z" fill="#F1F3F9"/>
<path d="M117.029 5.29802C118.492 5.29802 119.678 4.11202 119.678 2.64901C119.678 1.186 118.492 0 117.029 0C115.566 0 114.38 1.186 114.38 2.64901C114.38 4.11202 115.566 5.29802 117.029 5.29802Z" fill="#F1F3F9"/>
<path d="M21.0973 20.341C22.5603 20.341 23.7463 19.155 23.7463 17.692C23.7463 16.229 22.5603 15.043 21.0973 15.043C19.6342 15.043 18.4482 16.229 18.4482 17.692C18.4482 19.155 19.6342 20.341 21.0973 20.341Z" fill="#F1F3F9"/>
<path d="M4.91959 71.4281C7.63661 71.4281 9.83918 69.2255 9.83918 66.5085C9.83918 63.7914 7.63661 61.5889 4.91959 61.5889C2.20258 61.5889 0 63.7914 0 66.5085C0 69.2255 2.20258 71.4281 4.91959 71.4281Z" fill="#F1F3F9"/>
<path d="M101.987 27.909L102.744 88.8362C102.744 90.9176 101.041 92.5259 98.9595 92.5259H39.546C37.4647 92.5259 35.7617 90.823 35.7617 88.8362V10.5012C35.7617 8.41985 37.4647 6.81152 39.546 6.81152H82.5924L101.987 27.909Z" fill="white" stroke="#D6DCE8" stroke-width="2" stroke-miterlimit="10"/>
<path d="M64.7115 80.3216H62.5356C62.0625 80.3216 61.6841 79.8486 61.6841 79.2809C61.6841 78.7133 62.0625 78.2402 62.5356 78.2402H64.7115C65.1846 78.2402 65.563 78.7133 65.563 79.2809C65.563 79.9432 65.1846 80.3216 64.7115 80.3216Z" fill="#D6DCE8"/>
<path d="M58.0889 80.3216H45.4115C44.9385 80.3216 44.5601 79.8486 44.5601 79.2809C44.5601 78.7133 44.9385 78.2402 45.4115 78.2402H58.0889C58.562 78.2402 58.9404 78.7133 58.9404 79.2809C58.9404 79.9432 58.562 80.3216 58.0889 80.3216Z" fill="#D6DCE8"/>
<path d="M74.2668 19.5838H45.79C45.1277 19.5838 44.5601 19.0162 44.5601 18.3539C44.5601 17.6917 45.1277 17.124 45.79 17.124H74.2668C74.9291 17.124 75.4967 17.6917 75.4967 18.3539C75.4967 19.0162 74.9291 19.5838 74.2668 19.5838Z" fill="#D6DCE8"/>
<path d="M56.7644 26.3953H45.79C45.1277 26.3953 44.5601 25.8277 44.5601 25.1654C44.5601 24.5032 45.1277 23.9355 45.79 23.9355H56.6698C57.3321 23.9355 57.8997 24.5032 57.8997 25.1654C57.8997 25.8277 57.3321 26.3953 56.7644 26.3953Z" fill="#D6DCE8"/>
<path d="M83.0747 6.81152V23.6517C83.0747 26.0168 85.1561 27.909 87.5213 27.909H102.469" fill="#D6DCE8"/>
<path d="M106.528 93.9454C105.582 93.9454 104.636 93.567 103.879 92.7155L88.0797 76.9161L87.5121 77.2945C82.4033 81.0788 76.443 83.0656 70.3881 83.0656C63.1033 83.0656 55.8186 80.1327 50.4259 75.0239C44.7495 69.6313 41.6274 62.3465 41.6274 54.3995C41.6274 38.6 54.4941 25.7334 70.2935 25.7334C81.0788 25.7334 90.5395 31.4098 95.6483 41.0598C100.663 50.6152 100 61.7789 93.8508 70.7666L93.4724 71.3342L109.366 87.2283C110.975 88.8366 110.596 90.4449 110.312 91.2964C109.556 92.8101 108.042 93.9454 106.528 93.9454ZM70.2935 33.5858C58.7514 33.5858 49.4799 42.952 49.4799 54.3995C49.4799 67.4553 60.1705 75.3077 70.5773 75.3077C76.916 75.3077 82.6871 72.4695 86.7552 67.3607C91.7694 61.1166 92.6209 52.6965 89.1204 45.4118C85.5253 38.127 78.3352 33.5858 70.2935 33.5858Z" fill="#F1F3F9" stroke="#D6DCE8" stroke-width="2" stroke-miterlimit="10"/>
<path d="M61.3057 57.8048C62.5356 57.8048 63.5763 56.7642 63.5763 55.5343C63.5763 54.3044 62.5356 53.2637 61.3057 53.2637C60.0758 53.2637 59.0352 54.3044 59.0352 55.5343C59.0352 56.7642 60.0758 57.8048 61.3057 57.8048Z" fill="#AAB2C5"/>
<path d="M78.7134 57.8048C79.9433 57.8048 80.984 56.7642 80.984 55.5343C80.984 54.3044 79.9433 53.2637 78.7134 53.2637C77.4835 53.2637 76.4429 54.3044 76.4429 55.5343C76.4429 56.8588 77.4835 57.8048 78.7134 57.8048Z" fill="#AAB2C5"/>
<path d="M61.2169 48.0219L56.2222 50.7188L56.8964 51.9674L61.8911 49.2705L61.2169 48.0219Z" fill="#AAB2C5"/>
<path d="M78.4045 47.9865L77.7305 49.2354L82.7257 51.9317L83.3998 50.6828L78.4045 47.9865Z" fill="#AAB2C5"/>
<path d="M70.0094 63.1024C71.4724 63.1024 72.6584 62.2129 72.6584 61.1157C72.6584 60.0184 71.4724 59.1289 70.0094 59.1289C68.5464 59.1289 67.3604 60.0184 67.3604 61.1157C67.3604 62.2129 68.5464 63.1024 70.0094 63.1024Z" fill="#AAB2C5"/>
</svg>
