<svg width="18" height="18" viewBox="0 0 18 18" fill="none" xmlns="http://www.w3.org/2000/svg">
<path d="M9 18C13.9706 18 18 13.9706 18 9C18 4.02944 13.9706 0 9 0C4.02944 0 0 4.02944 0 9C0 13.9706 4.02944 18 9 18Z" fill="#627EEA"/>
<path d="M9.28027 2.24902V7.23864L13.4973 9.12327L9.28027 2.24902Z" fill="white" fill-opacity="0.602"/>
<path d="M9.28054 2.24902L5.06348 9.12327L9.28054 7.23864V2.24902Z" fill="white"/>
<path d="M9.28027 12.3563V15.7466L13.4998 9.9082L9.28027 12.3563Z" fill="white" fill-opacity="0.602"/>
<path d="M9.28054 15.7466V12.3563L5.06348 9.9082L9.28054 15.7466Z" fill="white"/>
<path d="M9.28027 11.571L13.4973 9.12292L9.28027 7.23828V11.571Z" fill="white" fill-opacity="0.2"/>
<path d="M5.06348 9.12292L9.28054 11.571V7.23828L5.06348 9.12292Z" fill="white" fill-opacity="0.602"/>
</svg>
