<svg width="32" height="32" viewBox="0 0 32 32" fill="none" xmlns="http://www.w3.org/2000/svg">
<g id="super-g">
<path id="Shape" d="M16.0004 6.18667C19.0048 6.18667 21.0315 7.48445 22.187 8.56889L26.7026 4.16C23.9293 1.58222 20.3204 0 16.0004 0C9.74259 0 4.33814 3.59111 1.70703 8.81778L6.88036 12.8356C8.17814 8.97778 11.7693 6.18667 16.0004 6.18667Z" fill="#EA4335"/>
<path id="Shape_2" d="M31.36 16.357C31.36 15.0415 31.2533 14.0815 31.0222 13.0859H16V19.0237H24.8178C24.64 20.4993 23.68 22.7215 21.5467 24.2148L26.5956 28.1259C29.6178 25.3348 31.36 21.2282 31.36 16.357Z" fill="#4285F4"/>
<path id="Shape_3" d="M6.89778 19.167C6.56 18.1714 6.36444 17.1048 6.36444 16.0025C6.36444 14.9003 6.56 13.8336 6.88 12.8381L1.70667 8.82031C0.622222 10.9892 0 13.4248 0 16.0025C0 18.5803 0.622222 21.0159 1.70667 23.1848L6.89778 19.167Z" fill="#FBBC05"/>
<path id="Shape_4" d="M16.0021 31.9996C20.3221 31.9996 23.9488 30.5774 26.5977 28.1241L21.5488 24.213C20.1977 25.1552 18.3843 25.813 16.0021 25.813C11.771 25.813 8.1799 23.0218 6.8999 19.1641L1.72656 23.1818C4.35767 28.4085 9.74434 31.9996 16.0021 31.9996Z" fill="#34A853"/>
</g>
</svg>
