<svg width="24" height="24" viewBox="0 0 24 24" fill="none" xmlns="http://www.w3.org/2000/svg">
<path d="M2.39092 11.5151C2.89453 12.1099 3.50528 12.6398 4.22318 13.1914C3.69815 12.0667 3.29098 10.7041 3.0231 9.67671C3.62314 8.30328 4.54463 6.94067 5.91614 5.72947C6.05544 6.61624 6.37689 7.47058 6.78406 8.42224C6.85906 7.10289 7.19123 5.59969 7.4591 4.5507C8.51988 3.84777 9.61281 3.33949 10.6629 2.96099C10.5664 3.90184 10.6307 4.86432 10.7593 5.92412C11.1022 4.74536 11.6915 3.45845 12.163 2.5176C15.2596 1.74978 17.7348 2.0634 17.7348 2.0634L16.0418 5.48074L14.8417 6.62706L18.8813 4.59396C19.0634 5.03735 19.1491 6.34588 18.6134 7.14615C17.9491 8.14107 16.2561 8.07618 15.6346 7.81664C15.9025 8.19514 16.2775 8.43306 16.9954 8.45469C16.9954 8.45469 18.4634 10.4878 18.7098 10.8338C18.9563 11.1799 18.9777 11.3962 19.0098 11.7314C19.042 12.0667 19.042 12.5101 19.1063 12.6182C19.1813 12.7155 20.7242 14.6838 21.1314 15.1055C21.5386 15.5273 22.0207 15.9707 21.9993 16.1978C21.9779 16.4249 21.2921 17.3765 20.8742 17.7226C20.4564 18.0687 20.2956 18.0362 20.1242 18.0362C19.942 18.0362 19.8027 17.9821 19.6956 18.1335C19.5884 18.2849 19.3206 18.6526 19.2027 18.7391C19.0848 18.8257 18.8598 18.923 18.6134 18.7391C18.3669 18.5553 16.1382 17.0629 15.8275 17.0088C15.6346 16.9764 14.5631 16.8358 13.7166 16.6844C13.2559 16.6087 12.7094 16.3492 12.4951 16.1653C12.3987 16.1004 12.3237 16.0139 12.2273 15.9382C12.1415 15.8517 12.0558 15.776 11.9808 15.6895C11.8951 15.603 11.8201 15.5165 11.7451 15.4191C11.4344 15.0514 11.145 14.6621 10.8772 14.2512C10.7379 14.0457 10.6093 13.8402 10.4807 13.6348C10.4807 13.6239 10.4486 13.5807 10.4486 13.5699L10.4379 13.5482L10.4271 13.5158C10.4164 13.4725 10.395 13.4185 10.395 13.3644C10.3736 13.2563 10.3736 13.1373 10.3629 13.0183C10.3629 12.7804 10.3736 12.5425 10.4057 12.2938C10.4379 12.0559 10.47 11.8071 10.5022 11.5692C10.5129 11.526 10.4807 11.4935 10.4486 11.4935C10.4164 11.4827 10.3843 11.5043 10.3736 11.5368C10.3307 11.6557 10.2986 11.7747 10.2664 11.8937C10.2343 12.0126 10.2021 12.1316 10.1807 12.2613C10.1271 12.5101 10.0843 12.7588 10.0736 13.0183C10.0628 13.1481 10.0628 13.2779 10.0736 13.4185C10.0843 13.4834 10.095 13.5591 10.1057 13.624L10.1164 13.678C10.1271 13.6997 10.1271 13.7213 10.1378 13.7429C10.1593 13.7862 10.1593 13.797 10.1807 13.8402C10.2986 14.0565 10.4271 14.2728 10.5557 14.4891C10.8129 14.9217 11.0915 15.3326 11.4129 15.7327C11.4879 15.8301 11.5736 15.9274 11.6594 16.0247C11.7451 16.1221 11.8308 16.2086 11.9165 16.3059C12.013 16.3924 12.0987 16.4898 12.2058 16.5655C12.9452 17.1819 13.7488 17.463 14.4988 18.0687C15.3667 18.7716 16.3097 19.5286 16.749 19.9179C17.6597 20.7398 17.8848 21.1832 18.1634 21.7996C18.2384 21.9726 18.3991 22.4268 18.592 23C14.2845 21.6266 2.61593 18.3282 2.61593 18.3282C2.18734 17.4847 1.59801 14.6297 2.39092 11.5151ZM16.0954 10.8987C16.1382 10.9961 17.0811 12.629 17.1883 12.7912C17.2954 12.9535 17.649 13.4185 17.7133 13.4401C17.7776 13.4509 17.649 13.0183 17.649 12.9859C17.649 12.9426 17.7026 12.0991 17.7026 12.0991C17.7026 12.0991 17.8419 12.0559 17.9598 11.9477C18.0776 11.8396 18.2384 11.6666 18.2276 11.6341C18.2169 11.6125 17.9919 11.7314 17.8955 11.7639C17.799 11.7963 17.7455 11.818 17.574 11.7098C17.574 11.7098 16.1918 10.8014 16.1489 10.7798C16.1168 10.7473 16.0525 10.7906 16.0954 10.8987Z" fill="#727688"/>
</svg>
