<svg width="24" height="24" viewBox="0 0 24 24" fill="none" xmlns="http://www.w3.org/2000/svg">
<g clip-path="url(#clip0_6539_13088)">
<path d="M21.5613 4.52271C21.6341 4.44124 21.7103 4.33864 21.8049 4.25608C21.8872 4.18381 21.9266 4.06544 22.0084 3.99316C22.0273 4.00729 22.0456 4.02152 22.0646 4.03598C22.0418 4.14417 22.0184 4.2517 21.9956 4.35988L22.0345 4.37182C22.1251 4.25443 22.2151 4.13716 22.3059 4.02043C22.3209 4.02623 22.3354 4.03127 22.3503 4.03707C22.3408 4.12249 22.3453 4.21282 22.3175 4.29254C22.2524 4.48636 22.1718 4.67393 22.0995 4.86502C22.084 4.90531 22.0785 4.94933 22.0679 4.99127L22.2431 5.48885C22.3515 5.71957 22.4743 5.93419 22.6534 6.12669C22.7624 6.24408 22.8069 6.43023 22.8959 6.58156C23.13 6.97807 23.4063 7.34533 23.6464 7.73538C23.7993 7.98395 23.9011 8.25913 23.9535 8.54941C23.9611 8.59059 23.9902 8.6276 24.0001 8.64731C23.9362 8.81244 23.8556 8.96782 23.8189 9.1336C23.7928 9.25198 23.7517 9.30684 23.6348 9.33574C23.5324 9.36082 23.443 9.43835 23.3402 9.46386C23.0899 9.52529 22.768 9.36071 22.7135 9.0863C22.6712 8.87168 22.5477 8.82437 22.3915 8.76929C22.351 8.75484 22.2959 8.7532 22.272 8.72483C22.1357 8.56825 21.9517 8.49773 21.7694 8.41725C21.6809 8.37815 21.6048 8.31081 21.5213 8.25858C21.4567 8.21795 21.3956 8.16506 21.325 8.14338C20.8407 7.99358 20.8407 7.9961 20.5738 7.73001C20.4521 7.72311 20.3325 7.72202 20.1969 7.7806C20.0896 7.8267 20.0322 7.86317 19.96 7.96522C19.6086 8.45426 19.3762 9.00363 19.107 9.53438C19.0543 9.63863 19.0037 9.75875 19.0014 9.87219C18.9925 10.2825 18.8735 10.6862 18.928 11.099C18.9392 11.1838 18.9847 11.2648 18.9936 11.3496C19.0393 11.7658 18.8301 12.0916 18.6016 12.4068C18.5611 12.4628 18.5042 12.5067 18.4442 12.5661C18.591 12.6701 18.7577 12.753 18.8757 12.8809C19.1092 13.1316 19.4072 13.2756 19.6919 13.4447C19.7103 13.4558 19.7402 13.4546 19.7508 13.4692C19.9355 13.7383 20.1901 13.9718 20.1822 14.3371C20.18 14.4767 20.1672 14.6185 20.185 14.7559C20.2406 15.1907 20.2045 15.6433 20.438 16.0464C20.4848 16.127 20.4748 16.226 20.4125 16.3306C20.2468 16.6086 20.189 16.9239 20.1834 17.2458C20.1811 17.3269 20.1523 17.3909 20.1206 17.4649C20.0411 17.6523 20.0016 17.8563 19.9454 18.0559C19.7763 17.9636 19.4204 17.6394 19.346 17.4988C19.258 17.3335 19.1536 17.1689 19.2181 16.951C19.307 16.8054 19.4788 16.8876 19.6062 16.8621C19.6529 16.6819 19.6273 16.5285 19.5351 16.3967C19.4816 16.3205 19.456 16.2461 19.5084 16.1832C19.6435 16.0181 19.6296 15.8296 19.6196 15.6077C19.4162 15.7184 19.3372 15.9229 19.2121 16.0737C18.9891 16.344 18.8139 16.6531 18.6048 16.9355C18.5025 17.0735 18.354 17.1635 18.1699 17.1412C17.9141 17.1107 17.6923 17.2085 17.471 17.3086C17.2708 17.3992 17.0428 17.3803 16.8459 17.4871C16.7815 17.5221 16.5679 17.3297 16.5552 17.2314C16.5435 17.1412 16.5525 17.0489 16.5525 17.0056C16.6647 16.8783 16.776 16.7965 16.8233 16.6865C16.8695 16.5786 16.9084 16.5085 17.0318 16.5136C17.0518 16.5141 17.0801 16.5085 17.093 16.4957C17.1663 16.4206 17.2409 16.3334 17.3566 16.3773C17.4978 16.4301 17.6657 16.4318 17.7802 16.597C17.8281 16.517 17.857 16.4307 17.9159 16.3812C17.9792 16.3288 18.076 16.3195 18.15 16.2767C18.4397 16.1082 18.6587 15.8646 18.8567 15.5989C18.929 15.5016 19.0169 15.4094 19.0614 15.2997C19.1136 15.1691 19.127 15.0229 19.1558 14.8894C18.8445 14.6993 18.513 14.642 18.1905 14.5502C17.9459 14.4807 17.7168 14.3412 17.4989 14.2044C17.3811 14.1298 17.2742 14.0765 17.1342 14.0664C17.0041 14.0576 16.8772 14.0153 16.6926 13.9747C16.5924 13.8511 16.4925 13.7273 16.3929 13.6032C16.0299 13.6938 15.6952 13.8824 15.2937 13.8717C15.049 13.8646 14.7943 13.9402 14.5564 14.0174C14.3862 14.073 14.2439 14.097 14.0794 14.0118C14.0149 13.979 13.9192 13.9917 13.8402 14.0029C13.5299 14.0458 13.2336 13.9218 12.9267 13.9313C12.7759 13.7772 12.5645 13.9091 12.3839 13.804C12.2323 13.7166 12.0177 13.7395 11.8314 13.7095C11.8128 13.7062 11.7986 13.6778 11.7552 13.6349C11.6759 13.8195 11.5478 13.9908 11.5411 14.166C11.5321 14.3934 11.4819 14.6136 11.4483 14.8327C11.3829 15.2642 11.3743 15.7107 11.1898 16.1188C11.1853 16.1282 11.1778 16.1398 11.1795 16.1494C11.257 16.5025 11.1789 16.8866 11.3892 17.2136C11.4251 17.2704 11.4609 17.3404 11.5156 17.3682C11.7149 17.4694 11.8475 17.643 12.0025 17.7919C12.2132 17.9949 12.4198 18.1933 12.6792 18.3458C12.841 18.4413 12.9383 18.6483 13.0629 18.8062C13.0968 18.849 13.1129 18.918 13.1563 18.9397C13.4493 19.0909 13.6211 19.3439 13.7691 19.6242C13.8147 19.7104 13.9548 19.7465 13.8747 19.9133C13.7947 20.0039 13.6534 20.0117 13.5067 20.0039C13.063 19.98 12.8528 19.9145 12.7015 19.7943C12.671 19.6137 12.9268 19.4435 12.6859 19.2444H12.3361C12.2189 19.1032 12.102 18.9542 11.9764 18.814C11.846 18.6683 11.7065 18.531 11.5691 18.388C11.3795 18.651 11.4957 18.9352 11.4473 19.211C11.3266 19.3183 11.2257 19.1832 11.129 19.141C10.9805 19.077 10.8502 18.9708 10.7156 18.8763C10.4932 18.7206 10.4345 18.4942 10.5516 18.209C10.3973 18.1868 10.2335 18.1607 10.271 17.9438C10.127 17.7302 9.93914 17.5561 9.72386 17.4239C9.26209 17.1413 8.81554 16.8299 8.31512 16.6142C8.25588 16.5887 8.20584 16.5402 8.1455 16.5186C8.05374 16.4852 7.94621 16.4852 7.86584 16.4374C7.77889 16.3862 7.71494 16.295 7.63424 16.2139C7.58059 16.0487 7.64541 15.9019 7.71845 15.7467C7.90559 15.3464 8.05374 14.93 8.16938 14.5045C8.20058 14.3893 8.2261 14.2365 8.12152 14.1098C8.08626 14.0664 8.10849 13.9763 8.10258 13.8695C8.00523 13.8063 7.89245 13.7172 7.76674 13.6533C7.40615 13.4703 7.02804 13.318 6.73501 13.0244C6.72527 13.0154 6.6922 13.0282 6.6519 13.0327C6.61653 13.2322 6.69505 13.4602 6.53123 13.6604C6.39446 13.5948 6.25211 13.5258 6.10056 13.4526C6.0653 13.5548 6.0272 13.6666 5.98799 13.7805C5.84291 13.7238 5.90379 13.5993 5.91912 13.5087C5.93664 13.4059 5.99588 13.3091 6.03639 13.2123C5.81706 13.0311 5.55459 12.9054 5.59905 12.5728C5.52207 12.534 5.44585 12.4958 5.36909 12.4572C5.33821 12.4838 5.30679 12.5019 5.28872 12.5288C5.11603 12.7891 4.89364 13.0677 4.56031 13.1856C4.52002 13.2001 4.47972 13.2322 4.44019 13.2301C4.0646 13.2167 3.76906 13.3696 3.53264 13.6537C3.5126 13.6777 3.48599 13.6965 3.40562 13.7683C3.44537 13.6593 3.45008 13.6037 3.48019 13.5726C3.53385 13.517 3.60218 13.4769 3.66426 13.4302C3.65014 13.4096 3.63645 13.3885 3.62199 13.3679L3.3351 13.4564C3.46377 13.2668 3.62835 13.2462 3.77519 13.1928C3.51326 13.1357 3.32536 13.2218 3.23086 13.4848C3.1899 13.6243 3.29973 13.805 3.12103 13.9263C3.09825 13.9068 3.07427 13.8862 3.05434 13.8694C2.98897 14.0001 2.92173 14.1319 2.84213 14.2898C2.78792 14.2137 2.74171 14.1475 2.69342 14.0797C2.65313 14.1186 2.60527 14.1641 2.55753 14.2087C2.54614 14.1904 2.52085 14.1608 2.52556 14.1553C2.63484 14.0174 2.68368 13.8656 2.66791 13.6872C2.66397 13.6461 2.71905 13.5993 2.76296 13.5298C2.59279 13.5482 2.49774 13.6805 2.34619 13.656C2.19015 13.6305 2.05284 13.7688 1.88661 13.7238C1.75072 13.6871 1.61056 13.6638 1.4635 13.6338C1.50128 13.5926 1.52438 13.5681 1.56052 13.5298C1.53884 13.4958 1.52438 13.4436 1.49153 13.428C1.29005 13.3301 1.16128 13.1511 1.00359 13.0055C0.986293 12.9894 0.956837 12.9732 0.956289 12.956C0.949391 12.7757 0.795541 12.7096 0.684069 12.6229C0.565588 12.5311 0.423346 12.4702 0.290411 12.3966C0.195363 12.3461 0.099659 12.2949 0.00012207 12.2407C0.0348341 12.2015 0.0571724 12.177 0.0776492 12.1538C0.069546 12.1179 -0.0141131 12.1115 0.0581579 12.0342C0.165688 12.0967 0.27727 12.1623 0.403197 12.2358C0.425974 12.2266 0.483024 12.1804 0.516641 12.1935C0.658117 12.2494 0.813281 12.2443 0.952566 12.3212C1.25567 12.488 1.56807 12.4977 1.87566 12.3156C1.93042 12.2831 1.99415 12.2647 2.07605 12.2311C2.1273 12.1474 2.17285 12.0114 2.2668 11.9347C2.39547 11.8284 2.41189 11.6783 2.44551 11.5518C2.53782 11.2057 2.65959 10.8748 2.79055 10.5423C2.8856 10.301 3.0274 10.0853 3.11424 9.83759C3.20852 9.56592 3.42205 9.36082 3.75592 9.31877C3.92827 9.29709 4.07982 9.21453 4.26192 9.31822C4.3481 9.36827 4.48574 9.32742 4.60587 9.28515C4.56557 9.27596 4.5244 9.25844 4.4841 9.25953C4.41183 9.26117 4.35708 9.24584 4.29948 9.19284C4.26992 9.16558 4.19436 9.18792 4.1407 9.16448C4.33365 9.06944 4.51662 9.14565 4.68394 9.22482C4.94751 9.34965 5.19915 9.49868 5.45385 9.64103C5.57725 9.70991 5.69015 9.80014 5.8175 9.85905C5.96347 9.92683 6.1194 9.9725 6.27259 10.0247C6.39436 10.067 6.51722 10.1046 6.68125 10.1576C6.72461 10.1153 6.79688 10.0448 6.86806 9.97348C7.34844 9.49419 7.76499 9.26008 8.47532 8.96738C8.70604 8.87233 8.94465 8.80915 9.17515 8.71859C9.24578 8.69133 9.3325 8.70272 9.41145 8.69888C9.89052 8.67501 10.3767 8.69636 10.8464 8.61741C11.4216 8.52061 11.9926 8.5815 12.5644 8.56321C12.8715 8.55347 13.1672 8.4386 13.4776 8.48864C13.8222 8.33764 14.2114 8.29209 14.5084 8.06903C14.4855 7.9601 14.463 7.85111 14.4406 7.74206C14.3684 7.761 14.2905 7.78071 14.2049 7.80239C14.2049 7.76549 14.2026 7.73461 14.2054 7.73407C14.3306 7.716 14.4023 7.62303 14.4585 7.52853C14.552 7.36921 14.6709 7.25084 14.8339 7.15907C15.0346 7.04563 15.1791 6.86856 15.2754 6.6581C15.2859 6.63587 15.2514 6.59361 15.2369 6.55944C15.3381 6.51214 15.4672 6.54696 15.5205 6.3746C15.5605 6.24583 15.7151 6.15308 15.7718 6.09428C15.9109 6.03723 15.9904 6.00515 16.0822 5.96726L15.9998 5.87276C16.021 5.84943 16.0428 5.82491 16.0699 5.79435C16.0265 5.77881 15.9859 5.76512 15.9181 5.74125C15.9998 5.65868 16.0744 5.58411 16.1583 5.50045C16.1233 5.45205 16.0976 5.41668 16.0677 5.37453C16.0955 5.3662 16.1373 5.34014 16.1521 5.3512C16.25 5.42424 16.3534 5.44012 16.4468 5.40924C16.4618 5.29667 16.4746 5.19407 16.4891 5.08643C16.4067 5.07394 16.3428 5.06365 16.2461 5.04887C16.3233 5.01197 16.3695 4.99018 16.4312 4.96072C16.4048 4.91383 16.3789 4.86674 16.3533 4.81946C16.3678 4.81136 16.3922 4.78694 16.4045 4.79187C16.4929 4.82997 16.5796 4.87388 16.6319 4.89896C16.9306 4.84038 17.2074 4.78639 17.4965 4.72934C17.527 4.74829 17.5721 4.77665 17.6345 4.8164C17.6555 4.75606 17.6689 4.71686 17.6823 4.67711C17.6957 4.67602 17.7167 4.66736 17.7279 4.67404C17.8424 4.74303 17.9559 4.80282 18.0994 4.79329C18.2084 4.78585 18.3202 4.77052 18.4241 4.85483C18.4636 4.88648 18.5632 4.87115 18.6232 4.84673C18.7822 4.78114 18.9101 4.6413 19.1003 4.65094C19.1197 4.45942 19.3216 4.51636 19.4216 4.41847C19.5673 4.27557 19.7697 4.27502 19.981 4.33536C20.3318 4.43599 20.6877 4.53695 21.0608 4.50968C21.1242 4.50497 21.1869 4.46052 21.2488 4.46358C21.3399 4.46741 21.4323 4.49632 21.5613 4.52271ZM9.39667 14.5752C9.18314 14.9594 9.05864 15.3542 9.08755 15.7834C9.09554 15.9019 9.10923 16.0325 9.16617 16.1315C9.20986 16.2077 9.28684 16.2773 9.39667 16.3172C9.55096 16.3741 9.68028 16.4969 9.86238 16.6198C9.81398 16.2066 9.96662 15.8597 9.92797 15.492C9.90968 15.3142 9.85844 15.1474 9.81168 14.9811C9.75474 14.7782 9.58293 14.6624 9.39667 14.5752Z" fill="black"/>
</g>
<defs>
<clipPath id="clip0_6539_13088">
<rect width="24" height="24" fill="white"/>
</clipPath>
</defs>
</svg>
