<svg width="32" height="32" viewBox="0 0 32 32" fill="none" xmlns="http://www.w3.org/2000/svg">
<g clip-path="url(#clip0_6653_27171)">
<path d="M28.7485 6.03028C28.8456 5.92166 28.9472 5.78485 29.0733 5.67477C29.183 5.57841 29.2355 5.42058 29.3446 5.32422C29.3699 5.34305 29.3943 5.36203 29.4195 5.38131C29.3891 5.52556 29.3579 5.66893 29.3275 5.81318L29.3794 5.82909C29.5003 5.67258 29.6203 5.51621 29.7413 5.36057C29.7613 5.36831 29.7806 5.37503 29.8004 5.38277C29.7879 5.49665 29.7939 5.6171 29.7568 5.72339C29.6699 5.98181 29.5624 6.23191 29.4661 6.48669C29.4454 6.54042 29.4381 6.59911 29.4239 6.65503L29.6575 7.31846C29.802 7.62609 29.9659 7.91225 30.2046 8.16892C30.35 8.32544 30.4093 8.57364 30.528 8.77542C30.8401 9.30409 31.2085 9.79378 31.5287 10.3138C31.7325 10.6453 31.8683 11.0122 31.938 11.3992C31.9483 11.4541 31.987 11.5035 32.0002 11.5297C31.915 11.7499 31.8075 11.9571 31.7586 12.1781C31.7239 12.336 31.669 12.4091 31.5132 12.4477C31.3767 12.4811 31.2574 12.5845 31.1203 12.6185C30.7867 12.7004 30.3574 12.4809 30.2847 12.1151C30.2284 11.8289 30.0637 11.7658 29.8555 11.6924C29.8015 11.6731 29.728 11.6709 29.696 11.6331C29.5144 11.4243 29.269 11.3303 29.0259 11.223C28.9079 11.1709 28.8064 11.0811 28.6952 11.0114C28.6091 10.9573 28.5276 10.8868 28.4334 10.8578C27.7876 10.6581 27.7876 10.6615 27.4318 10.3067C27.2695 10.2975 27.1101 10.296 26.9293 10.3741C26.7862 10.4356 26.7097 10.4842 26.6134 10.6203C26.1448 11.2723 25.835 12.0048 25.4761 12.7125C25.4058 12.8515 25.3383 13.0117 25.3352 13.1629C25.3234 13.71 25.1647 14.2483 25.2374 14.7987C25.2523 14.9117 25.3131 15.0198 25.3249 15.1328C25.3858 15.6877 25.1069 16.1221 24.8022 16.5424C24.7482 16.617 24.6724 16.6756 24.5924 16.7549C24.788 16.8934 25.0104 17.0039 25.1676 17.1745C25.4791 17.5088 25.8763 17.7008 26.2559 17.9262C26.2805 17.9411 26.3203 17.9395 26.3345 17.9589C26.5808 18.3177 26.9202 18.6291 26.9097 19.1162C26.9068 19.3023 26.8897 19.4914 26.9134 19.6745C26.9876 20.2542 26.9394 20.8577 27.2508 21.3953C27.3131 21.5027 27.2999 21.6347 27.2168 21.7741C26.9959 22.1448 26.9188 22.5652 26.9113 22.9944C26.9083 23.1026 26.8699 23.1879 26.8275 23.2866C26.7215 23.5364 26.6688 23.8084 26.5939 24.0745C26.3685 23.9515 25.894 23.5191 25.7947 23.3317C25.6775 23.1114 25.5382 22.8919 25.6242 22.6014C25.7427 22.4072 25.9718 22.5168 26.1416 22.4828C26.204 22.2425 26.1698 22.0379 26.0469 21.8623C25.9756 21.7607 25.9415 21.6614 26.0112 21.5776C26.1914 21.3574 26.1729 21.1062 26.1596 20.8102C25.8883 20.9578 25.783 21.2306 25.6162 21.4316C25.3189 21.7919 25.0853 22.2041 24.8064 22.5806C24.6701 22.7646 24.4721 22.8846 24.2267 22.855C23.8856 22.8142 23.5898 22.9446 23.2947 23.0781C23.0278 23.199 22.7239 23.1737 22.4613 23.3162C22.3753 23.3628 22.0906 23.1062 22.0737 22.9751C22.0581 22.855 22.0701 22.7319 22.0701 22.6741C22.2197 22.5044 22.368 22.3954 22.4311 22.2486C22.4927 22.1048 22.5446 22.0114 22.7091 22.0181C22.7358 22.0188 22.7735 22.0114 22.7907 21.9943C22.8885 21.8941 22.988 21.7779 23.1422 21.8365C23.3305 21.9068 23.5543 21.909 23.707 22.1293C23.7708 22.0226 23.8094 21.9076 23.8879 21.8416C23.9723 21.7718 24.1014 21.7594 24.2001 21.7023C24.5864 21.4776 24.8784 21.1527 25.1424 20.7985C25.2387 20.6687 25.356 20.5458 25.4153 20.3997C25.4849 20.2255 25.5027 20.0306 25.5411 19.8526C25.126 19.5991 24.6841 19.5226 24.2541 19.4003C23.9279 19.3076 23.6225 19.1216 23.332 18.9392C23.1749 18.8398 23.0324 18.7687 22.8456 18.7552C22.6722 18.7434 22.503 18.6871 22.2569 18.6329C22.1233 18.4681 21.9901 18.3031 21.8573 18.1377C21.3733 18.2584 20.927 18.5098 20.3916 18.4956C20.0655 18.4862 19.7259 18.5869 19.4086 18.6898C19.1817 18.764 18.9919 18.796 18.7726 18.6824C18.6866 18.6387 18.559 18.6557 18.4537 18.6706C18.04 18.7278 17.6449 18.5624 17.2356 18.5751C17.0346 18.3696 16.7528 18.5454 16.5119 18.4053C16.3098 18.2888 16.0237 18.3193 15.7753 18.2793C15.7505 18.2749 15.7315 18.2371 15.6737 18.1798C15.568 18.426 15.3972 18.6544 15.3883 18.888C15.3762 19.1912 15.3093 19.4848 15.2645 19.777C15.1773 20.3522 15.1658 20.9476 14.9198 21.4918C14.9138 21.5043 14.9038 21.5198 14.906 21.5325C15.0094 22.0033 14.9053 22.5155 15.1856 22.9515C15.2335 23.0273 15.2813 23.1206 15.3543 23.1576C15.62 23.2925 15.7968 23.524 16.0034 23.7225C16.2843 23.9932 16.5598 24.2578 16.9057 24.461C17.1215 24.5885 17.2511 24.8644 17.4173 25.0749C17.4625 25.132 17.484 25.224 17.5418 25.2529C17.9325 25.4545 18.1616 25.7918 18.3588 26.1656C18.4197 26.2805 18.6065 26.3287 18.4997 26.551C18.393 26.6719 18.2047 26.6823 18.009 26.6719C17.4174 26.6399 17.1371 26.5526 16.9355 26.3925C16.8947 26.1516 17.2358 25.9247 16.9146 25.6592H16.4483C16.2919 25.4709 16.1361 25.2723 15.9686 25.0853C15.7947 24.8911 15.6087 24.708 15.4255 24.5174C15.1728 24.8681 15.3277 25.2469 15.2632 25.6147C15.1023 25.7578 14.9676 25.5776 14.8387 25.5213C14.6407 25.436 14.467 25.2944 14.2876 25.1684C13.991 24.9608 13.9128 24.659 14.0689 24.2786C13.8631 24.249 13.6447 24.2143 13.6948 23.925C13.5028 23.6403 13.2523 23.4082 12.9652 23.2318C12.3495 22.8551 11.7541 22.4399 11.0869 22.1523C11.0079 22.1183 10.9412 22.0536 10.8608 22.0248C10.7384 21.9803 10.595 21.9803 10.4879 21.9165C10.3719 21.8483 10.2867 21.7267 10.1791 21.6185C10.1075 21.3983 10.194 21.2025 10.2913 20.9956C10.5409 20.4619 10.7384 19.9066 10.8926 19.3394C10.9342 19.1858 10.9682 18.982 10.8288 18.8131C10.7818 18.7552 10.8114 18.6351 10.8035 18.4927C10.6737 18.4083 10.5233 18.2896 10.3557 18.2044C9.87495 17.9604 9.3708 17.7573 8.9801 17.3659C8.96711 17.3539 8.92301 17.371 8.86929 17.377C8.82213 17.643 8.92681 17.947 8.70839 18.2139C8.52603 18.1264 8.33623 18.0344 8.13416 17.9368C8.08715 18.0731 8.03634 18.2222 7.98407 18.374C7.79062 18.2984 7.8718 18.1324 7.89224 18.0117C7.9156 17.8746 7.99459 17.7455 8.04861 17.6164C7.75617 17.3748 7.4062 17.2072 7.46548 16.7638C7.36284 16.7119 7.26122 16.6611 7.15887 16.6096C7.1177 16.6451 7.0758 16.6692 7.05171 16.7051C6.82146 17.0521 6.52493 17.4236 6.0805 17.5808C6.02677 17.6001 5.97304 17.643 5.92034 17.6401C5.41955 17.6223 5.02549 17.8261 4.71027 18.205C4.68355 18.2369 4.64807 18.262 4.54091 18.3577C4.59391 18.2124 4.60018 18.1382 4.64034 18.0968C4.71188 18.0226 4.80298 17.9692 4.88577 17.907C4.86693 17.8795 4.84868 17.8513 4.82941 17.8239L4.44688 17.9419C4.61844 17.6891 4.83788 17.6615 5.03367 17.5904C4.68443 17.5142 4.43389 17.6291 4.30789 17.9797C4.25328 18.1657 4.39972 18.4067 4.16145 18.5684C4.13108 18.5424 4.09911 18.5149 4.07253 18.4926C3.98537 18.6668 3.89573 18.8425 3.78958 19.0531C3.71731 18.9516 3.6557 18.8633 3.59131 18.7729C3.53758 18.8247 3.47378 18.8855 3.41012 18.9449C3.39494 18.9205 3.36121 18.8811 3.36749 18.8738C3.5132 18.6898 3.57832 18.4875 3.55729 18.2496C3.55204 18.1947 3.62548 18.1324 3.68402 18.0397C3.45713 18.0642 3.33041 18.2407 3.12834 18.208C2.92029 18.174 2.7372 18.3584 2.51557 18.2984C2.33438 18.2495 2.1475 18.2184 1.95142 18.1784C2.00179 18.1235 2.03259 18.0908 2.08077 18.0397C2.05187 17.9944 2.03259 17.9248 1.98879 17.904C1.72015 17.7735 1.54845 17.5348 1.33821 17.3406C1.31514 17.3192 1.27586 17.2976 1.27513 17.2746C1.26594 17.0343 1.0608 16.9461 0.912173 16.8305C0.754199 16.7081 0.564542 16.627 0.387296 16.5289C0.260566 16.4614 0.13296 16.3932 0.000244141 16.3209C0.0465268 16.2687 0.0763112 16.236 0.103614 16.205C0.0928094 16.1571 -0.0187361 16.1487 0.0776252 16.0456C0.220999 16.129 0.369775 16.2164 0.537678 16.3144C0.568046 16.3021 0.644113 16.2405 0.688936 16.258C0.877571 16.3325 1.08446 16.3258 1.27017 16.4283C1.6743 16.6506 2.09085 16.6636 2.50097 16.4208C2.57397 16.3774 2.65894 16.3529 2.76815 16.3081C2.83648 16.1966 2.89722 16.0152 3.02249 15.9129C3.19404 15.7712 3.21594 15.5711 3.26076 15.4024C3.38384 14.9409 3.5462 14.4997 3.72081 14.0565C3.84754 13.7347 4.03662 13.447 4.1524 13.1168C4.2781 12.7546 4.56281 12.4811 5.00797 12.425C5.23778 12.3961 5.43984 12.286 5.68264 12.4243C5.79755 12.491 5.98107 12.4366 6.14124 12.3802C6.08751 12.3679 6.03261 12.3446 5.97888 12.346C5.88252 12.3482 5.80952 12.3278 5.73272 12.2571C5.6933 12.2208 5.59256 12.2506 5.52102 12.2193C5.77828 12.0926 6.02225 12.1942 6.24534 12.2998C6.59676 12.4662 6.93228 12.6649 7.27188 12.8547C7.43642 12.9465 7.58695 13.0669 7.75675 13.1454C7.95137 13.2358 8.15928 13.2967 8.36353 13.3663C8.52589 13.4227 8.6897 13.4727 8.90841 13.5434C8.96623 13.487 9.06259 13.393 9.15749 13.298C9.798 12.6589 10.3534 12.3468 11.3005 11.9565C11.6081 11.8298 11.9263 11.7455 12.2336 11.6248C12.3278 11.5884 12.4434 11.6036 12.5487 11.5985C13.1874 11.5667 13.8357 11.5952 14.4619 11.4899C15.2288 11.3608 15.9902 11.442 16.7527 11.4176C17.1621 11.4046 17.5564 11.2515 17.9702 11.3182C18.4296 11.1169 18.9487 11.0561 19.3446 10.7587C19.3141 10.6135 19.284 10.4681 19.2543 10.3227C19.1579 10.348 19.0541 10.3743 18.9399 10.4032C18.9399 10.354 18.9369 10.3128 18.9407 10.3121C19.1075 10.288 19.2032 10.164 19.2781 10.038C19.4027 9.82561 19.5613 9.66778 19.7786 9.54543C20.0462 9.39417 20.2389 9.15809 20.3672 8.87747C20.3813 8.84783 20.3353 8.79148 20.316 8.74592C20.4509 8.68285 20.623 8.72928 20.6941 8.49947C20.7474 8.32777 20.9536 8.20411 21.0292 8.12571C21.2146 8.04964 21.3206 8.00686 21.443 7.95634L21.3332 7.83034C21.3614 7.79925 21.3904 7.76654 21.4266 7.72581C21.3688 7.70507 21.3146 7.68682 21.2243 7.655C21.3332 7.54491 21.4326 7.44548 21.5445 7.33394C21.4979 7.2694 21.4636 7.22225 21.4237 7.16603C21.4608 7.15494 21.5164 7.12019 21.5363 7.13494C21.6668 7.23232 21.8046 7.25349 21.9292 7.21232C21.9492 7.06223 21.9663 6.92542 21.9855 6.7819C21.8757 6.76526 21.7905 6.75153 21.6615 6.73182C21.7645 6.68262 21.8261 6.65357 21.9083 6.61429C21.8732 6.55178 21.8386 6.48899 21.8045 6.42595C21.8238 6.41515 21.8563 6.38259 21.8728 6.38916C21.9906 6.43997 22.1063 6.49851 22.1759 6.53195C22.5742 6.45384 22.9433 6.38186 23.3287 6.30579C23.3695 6.33105 23.4295 6.36886 23.5127 6.42186C23.5407 6.34141 23.5585 6.28915 23.5765 6.23615C23.5943 6.23469 23.6224 6.22315 23.6372 6.23206C23.79 6.32404 23.9412 6.40376 24.1326 6.39106C24.2779 6.38113 24.427 6.36069 24.5655 6.47311C24.6182 6.5153 24.7509 6.49486 24.831 6.4623C25.043 6.37485 25.2135 6.1884 25.4671 6.20125C25.4931 5.9459 25.7622 6.02182 25.8956 5.89129C26.0898 5.70076 26.3597 5.70003 26.6414 5.78048C27.1092 5.91465 27.5837 6.04926 28.0811 6.01291C28.1656 6.00663 28.2493 5.94736 28.3318 5.95144C28.4533 5.95655 28.5765 5.9951 28.7485 6.03028ZM12.529 19.4336C12.2443 19.9459 12.0783 20.4722 12.1168 21.0446C12.1275 21.2025 12.1457 21.3767 12.2216 21.5087C12.2799 21.6103 12.3825 21.703 12.529 21.7563C12.7347 21.8321 12.9071 21.9959 13.1499 22.1597C13.0854 21.6088 13.2889 21.1463 13.2374 20.656C13.213 20.4189 13.1447 20.1966 13.0823 19.9748C13.0064 19.7043 12.7773 19.5499 12.529 19.4336Z" fill="black"/>
</g>
<defs>
<clipPath id="clip0_6653_27171">
<rect width="32" height="32" fill="white"/>
</clipPath>
</defs>
</svg>
