<svg width="12" height="12" viewBox="0 0 12 12" fill="none" xmlns="http://www.w3.org/2000/svg">
<path d="M9.41133 7.82899e-07C8.72594 -0.000532753 8.06833 0.271652 7.58287 0.756808C7.09741 1.24196 6.82377 1.90045 6.822 2.58771V5.45686C6.55533 5.47491 6.28267 5.48627 6 5.48627C5.71733 5.48627 5.446 5.49763 5.178 5.51368V2.58771C5.1671 1.90641 4.88953 1.2567 4.40519 0.778768C3.92084 0.300832 3.26854 0.0329704 2.589 0.0329704C1.90946 0.0329704 1.25716 0.300832 0.772813 0.778768C0.288467 1.2567 0.0109034 1.90641 0 2.58771V9.44505C0.0109034 10.1264 0.288467 10.7761 0.772813 11.254C1.25716 11.7319 1.90946 11.9998 2.589 11.9998C3.26854 11.9998 3.92084 11.7319 4.40519 11.254C4.88953 10.7761 5.1671 10.1264 5.178 9.44505V6.5759C5.44467 6.55785 5.71733 6.54649 6 6.54649C6.28267 6.54649 6.554 6.53512 6.822 6.51908V9.44505C6.8329 10.1264 7.11047 10.7761 7.59481 11.254C8.07916 11.7319 8.73146 11.9998 9.411 11.9998C10.0905 11.9998 10.7428 11.7319 11.2272 11.254C11.7115 10.7761 11.9891 10.1264 12 9.44505V2.58771C11.9982 1.90056 11.7247 1.24218 11.2394 0.757045C10.754 0.271908 10.0966 -0.000355608 9.41133 7.82899e-07ZM2.58867 1.06022C2.99316 1.06004 3.38121 1.22077 3.66767 1.50713C3.95413 1.7935 4.11561 2.18211 4.11667 2.58771V5.62598C3.35919 5.73605 2.61948 5.94575 1.91667 6.24968C1.61216 6.38369 1.3255 6.55526 1.06333 6.7604V2.58771C1.06439 2.18257 1.2255 1.79436 1.51138 1.50808C1.79727 1.22179 2.18463 1.06075 2.58867 1.06022ZM4.11667 9.44505C4.11667 9.8514 3.95568 10.2411 3.66913 10.5285C3.38257 10.8158 2.99392 10.9772 2.58867 10.9772C2.18342 10.9772 1.79476 10.8158 1.50821 10.5285C1.22165 10.2411 1.06067 9.8514 1.06067 9.44505V8.75717C1.06067 8.14952 1.54067 7.57395 2.34533 7.21564C2.91232 6.97037 3.50722 6.79592 4.11667 6.69623V9.44505ZM9.41133 10.9725C9.00684 10.9727 8.61879 10.812 8.33233 10.5256C8.04587 10.2393 7.88439 9.85065 7.88333 9.44505V6.40677C8.64081 6.29671 9.38052 6.08701 10.0833 5.78308C10.3878 5.64907 10.6745 5.4775 10.9367 5.27235V9.44505C10.9356 9.85018 10.7745 10.2384 10.4886 10.5247C10.2027 10.811 9.81537 10.972 9.41133 10.9725ZM9.65467 4.8131C9.08768 5.05838 8.49278 5.23283 7.88333 5.33252V2.58771C7.88333 2.18135 8.04432 1.79164 8.33088 1.5043C8.61743 1.21697 9.00608 1.05554 9.41133 1.05554C9.81658 1.05554 10.2052 1.21697 10.4918 1.5043C10.7783 1.79164 10.9393 2.18135 10.9393 2.58771V3.27558C10.9393 3.88056 10.4593 4.45613 9.65467 4.8131Z" fill="url(#paint0_linear_7398_3966)"/>
<defs>
<linearGradient id="paint0_linear_7398_3966" x1="0.759999" y1="11.1058" x2="11.2" y2="0.665766" gradientUnits="userSpaceOnUse">
<stop stop-color="#00AEE9"/>
<stop offset="1" stop-color="#69FABD"/>
</linearGradient>
</defs>
</svg>
