<svg width="24" height="22" viewBox="0 0 24 22" fill="none" xmlns="http://www.w3.org/2000/svg">
<path fill-rule="evenodd" clip-rule="evenodd" d="M6.87732 19.9176L9.99766 20.7455V19.6629L10.2524 19.4082H12.0354V20.6818V21.5733H10.125L7.76883 20.5544L6.87732 19.9176Z" fill="#CDBDB2"/>
<path fill-rule="evenodd" clip-rule="evenodd" d="M17.066 19.9176L14.0094 20.7455V19.6629L13.7547 19.4082H11.9717V20.6818V21.5733H13.8821L16.2382 20.5544L17.066 19.9176Z" fill="#CDBDB2"/>
<path fill-rule="evenodd" clip-rule="evenodd" d="M10.2524 17.5606L9.99768 19.662L10.316 19.4073H13.6273L14.0094 19.662L13.7547 17.5606L13.2453 17.2422L10.6981 17.3059L10.2524 17.5606Z" fill="#393939"/>
<path fill-rule="evenodd" clip-rule="evenodd" d="M8.53302 3.35938L10.0613 6.92541L10.7619 17.3052H13.2453L14.0094 6.92541L15.4104 3.35938H8.53302Z" fill="#F89C35"/>
<path fill-rule="evenodd" clip-rule="evenodd" d="M1.84674 11.1936L0.0637207 16.3515L4.52127 16.0968H7.38678V13.8681L7.25942 9.2832L6.62263 9.79264L1.84674 11.1936Z" fill="#F89D35"/>
<path fill-rule="evenodd" clip-rule="evenodd" d="M5.22168 11.7656L10.4434 11.893L9.87032 14.5675L7.38677 13.9307L5.22168 11.7656Z" fill="#D87C30"/>
<path fill-rule="evenodd" clip-rule="evenodd" d="M5.22168 11.8301L7.38677 13.8678V15.9056L5.22168 11.8301Z" fill="#EA8D3A"/>
<path fill-rule="evenodd" clip-rule="evenodd" d="M7.38678 13.9316L9.93395 14.5684L10.7618 17.3067L10.1887 17.625L7.38678 15.9694V13.9316Z" fill="#F89D35"/>
<path fill-rule="evenodd" clip-rule="evenodd" d="M7.38675 15.9688L6.87732 19.9169L10.2524 17.5608L7.38675 15.9688Z" fill="#EB8F35"/>
<path fill-rule="evenodd" clip-rule="evenodd" d="M10.4434 11.8926L10.7618 17.3054L9.80658 14.5353L10.4434 11.8926Z" fill="#EA8E3A"/>
<path fill-rule="evenodd" clip-rule="evenodd" d="M4.45752 16.0325L7.38676 15.9688L6.87733 19.9169L4.45752 16.0325Z" fill="#D87C30"/>
<path fill-rule="evenodd" clip-rule="evenodd" d="M1.46466 21.637L6.87734 19.9176L4.45753 16.0332L0.0637207 16.3515L1.46466 21.637Z" fill="#EB8F35"/>
<path fill-rule="evenodd" clip-rule="evenodd" d="M10.0613 6.92578L7.32315 9.21823L5.22168 11.7654L10.4434 11.9565L10.0613 6.92578Z" fill="#E8821E"/>
<path fill-rule="evenodd" clip-rule="evenodd" d="M6.87732 19.9166L10.2524 17.5605L9.99766 19.5983V20.7445L7.70521 20.2987L6.87732 19.9166Z" fill="#DFCEC3"/>
<path fill-rule="evenodd" clip-rule="evenodd" d="M17.066 19.9166L13.7547 17.5605L14.0094 19.5983V20.7445L16.3019 20.2987L17.066 19.9166Z" fill="#DFCEC3"/>
<path fill-rule="evenodd" clip-rule="evenodd" d="M9.04245 13.0391L9.74298 14.5037L7.25943 13.8669L9.04245 13.0391Z" fill="#393939"/>
<path fill-rule="evenodd" clip-rule="evenodd" d="M1.40094 0.367188L10.0613 6.92609L8.59675 3.36006L1.40094 0.367188Z" fill="#E88F35"/>
<path fill-rule="evenodd" clip-rule="evenodd" d="M1.40093 0.367188L0.2547 3.86955L0.891492 7.6903L0.445737 7.94502L1.08253 8.51813L0.573096 8.96389L1.27357 9.60068L0.827813 9.98275L1.84668 11.2563L6.62262 9.79172C8.95753 7.92379 10.1038 6.9686 10.0613 6.92615C10.0189 6.8837 7.13206 4.69738 1.40093 0.367188Z" fill="#8E5A30"/>
<path fill-rule="evenodd" clip-rule="evenodd" d="M22.0966 11.1936L23.8796 16.3515L19.4221 16.0968H16.5566V13.8681L16.6839 9.2832L17.3207 9.79264L22.0966 11.1936Z" fill="#F89D35"/>
<path fill-rule="evenodd" clip-rule="evenodd" d="M18.7217 11.7656L13.5 11.893L14.073 14.5675L16.5566 13.9307L18.7217 11.7656Z" fill="#D87C30"/>
<path fill-rule="evenodd" clip-rule="evenodd" d="M18.7217 11.8301L16.5566 13.8678V15.9056L18.7217 11.8301Z" fill="#EA8D3A"/>
<path fill-rule="evenodd" clip-rule="evenodd" d="M16.5566 13.9316L14.0094 14.5684L13.1815 17.3067L13.7547 17.625L16.5566 15.9694V13.9316Z" fill="#F89D35"/>
<path fill-rule="evenodd" clip-rule="evenodd" d="M16.5566 15.9688L17.066 19.9169L13.7547 17.6244L16.5566 15.9688Z" fill="#EB8F35"/>
<path fill-rule="evenodd" clip-rule="evenodd" d="M13.5 11.8926L13.1815 17.3054L14.1368 14.5353L13.5 11.8926Z" fill="#EA8E3A"/>
<path fill-rule="evenodd" clip-rule="evenodd" d="M19.4858 16.0325L16.5566 15.9688L17.066 19.9169L19.4858 16.0325Z" fill="#D87C30"/>
<path fill-rule="evenodd" clip-rule="evenodd" d="M22.4787 21.637L17.066 19.9176L19.4858 16.0332L23.8796 16.3515L22.4787 21.637Z" fill="#EB8F35"/>
<path fill-rule="evenodd" clip-rule="evenodd" d="M13.8821 6.92578L16.6202 9.21823L18.7217 11.7654L13.5 11.9565L13.8821 6.92578Z" fill="#E8821E"/>
<path fill-rule="evenodd" clip-rule="evenodd" d="M14.9009 13.0391L14.2004 14.5037L16.6839 13.8669L14.9009 13.0391Z" fill="#393939"/>
<path fill-rule="evenodd" clip-rule="evenodd" d="M22.5424 0.367188L13.882 6.92609L15.3466 3.36006L22.5424 0.367188Z" fill="#E88F35"/>
<path fill-rule="evenodd" clip-rule="evenodd" d="M22.5424 0.367188L23.6887 3.86955L23.0519 7.6903L23.4976 7.94502L22.8608 8.51813L23.3703 8.96389L22.6698 9.60068L23.1155 9.98275L22.0967 11.2563L17.3207 9.79172C14.9858 7.92379 13.8396 6.9686 13.8821 6.92615C13.9245 6.8837 16.8113 4.69738 22.5424 0.367188Z" fill="#8E5A30"/>
</svg>
