<svg width="17" height="17" viewBox="0 0 17 17" fill="none" xmlns="http://www.w3.org/2000/svg">
<path d="M8.50016 15.6663C4.54816 15.6663 1.3335 12.4517 1.3335 8.49967C1.3335 4.54767 4.54816 1.33301 8.50016 1.33301C12.4522 1.33301 15.6668 4.54767 15.6668 8.49967C15.6668 12.4517 12.4522 15.6663 8.50016 15.6663ZM8.50016 2.33301C5.0995 2.33301 2.3335 5.09901 2.3335 8.49967C2.3335 11.9003 5.0995 14.6663 8.50016 14.6663C11.9008 14.6663 14.6668 11.9003 14.6668 8.49967C14.6668 5.09901 11.9008 2.33301 8.50016 2.33301ZM9.00016 11.4997V8.45231C9.00016 8.17631 8.77616 7.95231 8.50016 7.95231C8.22416 7.95231 8.00016 8.17631 8.00016 8.45231V11.4997C8.00016 11.7757 8.22416 11.9997 8.50016 11.9997C8.77616 11.9997 9.00016 11.7757 9.00016 11.4997ZM9.18018 6.16634C9.18018 5.79834 8.88218 5.49967 8.51351 5.49967H8.50684C8.13884 5.49967 7.84342 5.79834 7.84342 6.16634C7.84342 6.53434 8.14551 6.83301 8.51351 6.83301C8.88151 6.83301 9.18018 6.53434 9.18018 6.16634Z" fill="#727688"/>
</svg>
