<svg width="24" height="24" viewBox="0 0 24 24" fill="none" xmlns="http://www.w3.org/2000/svg">
<path opacity="0.4" d="M15 7V6C15 4 14 3 12 3H6C4 3 3 4 3 6V18C3 20 4 21 6 21H12C14 21 15 20 15 18V17" fill="currentColor"/>
<path d="M21.692 11.7128C21.654 11.6208 21.599 11.5378 21.53 11.4688L18.53 8.46877C18.237 8.17577 17.762 8.17577 17.469 8.46877C17.176 8.76177 17.176 9.23678 17.469 9.52978L19.189 11.2498H8C7.586 11.2498 7.25 11.5858 7.25 11.9998C7.25 12.4138 7.586 12.7498 8 12.7498H19.189L17.469 14.4698C17.176 14.7628 17.176 15.2378 17.469 15.5308C17.615 15.6768 17.807 15.7508 17.999 15.7508C18.191 15.7508 18.383 15.6778 18.529 15.5308L21.529 12.5308C21.598 12.4618 21.653 12.3788 21.691 12.2868C21.768 12.1028 21.768 11.8968 21.692 11.7128Z" fill="currentColor"/>
</svg>
