<svg width="18" height="18" viewBox="0 0 18 18" fill="none" xmlns="http://www.w3.org/2000/svg">
<path d="M9 18C13.9724 18 18 13.9696 18 9C18 4.03039 13.9724 0 9 0C4.02759 0 0 4.03039 0 9C0 13.9696 4.03103 18 9 18Z" fill="#FF060A"/>
<path d="M14.062 7.38382C13.5655 6.92321 12.8758 6.22149 12.3172 5.72489L12.2827 5.70329C12.2275 5.66011 12.1655 5.62413 12.0999 5.59894C10.7482 5.34704 4.45857 4.17031 4.33788 4.1847C4.30339 4.1883 4.26891 4.20269 4.24132 4.22069L4.21029 4.24588C4.17236 4.28546 4.14132 4.33224 4.12408 4.38622L4.11719 4.40781V4.52656V4.54456C4.82408 6.51657 7.62064 12.9724 8.17236 14.491C8.20684 14.5953 8.26891 14.7897 8.38615 14.8005H8.41374C8.47581 14.8005 8.74477 14.4442 8.74477 14.4442C8.74477 14.4442 13.5482 8.62173 14.0344 8.00277C14.0965 7.9272 14.1517 7.84444 14.1999 7.75807C14.2137 7.6897 14.2068 7.62133 14.1827 7.55655C14.1586 7.49178 14.1137 7.4306 14.062 7.38382ZM9.97236 8.06395L12.0206 6.36543L13.2241 7.47379L9.97236 8.06395ZM9.17581 7.95239L5.64822 5.05915L11.3586 6.11353L9.17581 7.95239ZM9.49305 8.70809L13.1034 8.12512L8.97581 13.1019L9.49305 8.70809ZM5.16891 5.35063L8.8827 8.49938L8.34477 13.1055L5.16891 5.35063Z" fill="white"/>
</svg>
