<svg width="32" height="30" viewBox="0 0 32 30" fill="none" xmlns="http://www.w3.org/2000/svg">
<g id="metamask 1" clip-path="url(#clip0_5417_5724)">
<g id="Group">
<path id="Vector" fill-rule="evenodd" clip-rule="evenodd" d="M9.1698 26.8868L13.3303 27.9906V26.5471L13.6699 26.2075H16.0472V27.9056V29.0943H13.5001L10.3585 27.7358L9.1698 26.8868Z" fill="#CDBDB2"/>
<path id="Vector_2" fill-rule="evenodd" clip-rule="evenodd" d="M22.7547 26.8868L18.6792 27.9906V26.5471L18.3396 26.2075H15.9622V27.9056V29.0943H18.5094L21.6508 27.7358L22.7547 26.8868Z" fill="#CDBDB2"/>
<path id="Vector_3" fill-rule="evenodd" clip-rule="evenodd" d="M13.6699 23.7454L13.3303 26.5472L13.7547 26.2076H18.1698L18.6792 26.5472L18.3396 23.7454L17.6604 23.3208L14.2641 23.4058L13.6699 23.7454Z" fill="#393939"/>
<path id="Vector_4" fill-rule="evenodd" clip-rule="evenodd" d="M11.3773 4.81128L13.4151 9.566L14.3491 23.4057H17.6603L18.6792 9.566L20.5471 4.81128H11.3773Z" fill="#F89C35"/>
<path id="Vector_5" fill-rule="evenodd" clip-rule="evenodd" d="M2.46232 15.2549L0.0849609 22.1322L6.02836 21.7926H9.84904V18.821L9.67922 12.7078L8.83017 13.387L2.46232 15.2549Z" fill="#F89D35"/>
<path id="Vector_6" fill-rule="evenodd" clip-rule="evenodd" d="M6.96222 16.0188L13.9245 16.1886L13.1604 19.7546L9.84901 18.9056L6.96222 16.0188Z" fill="#D87C30"/>
<path id="Vector_7" fill-rule="evenodd" clip-rule="evenodd" d="M6.96222 16.104L9.84901 18.821V21.538L6.96222 16.104Z" fill="#EA8D3A"/>
<path id="Vector_8" fill-rule="evenodd" clip-rule="evenodd" d="M9.84906 18.9058L13.2453 19.7548L14.3491 23.4058L13.5849 23.8303L9.84906 21.6227V18.9058Z" fill="#F89D35"/>
<path id="Vector_9" fill-rule="evenodd" clip-rule="evenodd" d="M9.84905 21.6228L9.1698 26.887L13.6699 23.7455L9.84905 21.6228Z" fill="#EB8F35"/>
<path id="Vector_10" fill-rule="evenodd" clip-rule="evenodd" d="M13.9245 16.1887L14.3491 23.4058L13.0754 19.7123L13.9245 16.1887Z" fill="#EA8E3A"/>
<path id="Vector_11" fill-rule="evenodd" clip-rule="evenodd" d="M5.94336 21.7078L9.84902 21.6228L9.16977 26.887L5.94336 21.7078Z" fill="#D87C30"/>
<path id="Vector_12" fill-rule="evenodd" clip-rule="evenodd" d="M1.95289 29.1795L9.16979 26.8869L5.94338 21.7078L0.0849609 22.1322L1.95289 29.1795Z" fill="#EB8F35"/>
<path id="Vector_13" fill-rule="evenodd" clip-rule="evenodd" d="M13.415 9.56616L9.76418 12.6228L6.96222 16.019L13.9245 16.2738L13.415 9.56616Z" fill="#E8821E"/>
<path id="Vector_14" fill-rule="evenodd" clip-rule="evenodd" d="M9.1698 26.8868L13.6699 23.7454L13.3303 26.4623V27.9906L10.2736 27.3962L9.1698 26.8868Z" fill="#DFCEC3"/>
<path id="Vector_15" fill-rule="evenodd" clip-rule="evenodd" d="M22.7547 26.8868L18.3396 23.7454L18.6792 26.4623V27.9906L21.7358 27.3962L22.7547 26.8868Z" fill="#DFCEC3"/>
<path id="Vector_16" fill-rule="evenodd" clip-rule="evenodd" d="M12.0566 17.717L12.9906 19.6699L9.6792 18.8209L12.0566 17.717Z" fill="#393939"/>
<path id="Vector_17" fill-rule="evenodd" clip-rule="evenodd" d="M1.86792 0.820801L13.4151 9.56601L11.4623 4.81129L1.86792 0.820801Z" fill="#E88F35"/>
<path id="Vector_18" fill-rule="evenodd" clip-rule="evenodd" d="M1.8679 0.820801L0.3396 5.49061L1.18866 10.585L0.594317 10.9246L1.44337 11.6887L0.764128 12.2831L1.69809 13.1321L1.10375 13.6416L2.46224 15.3397L8.83017 13.3868C11.9434 10.8963 13.4717 9.62269 13.4151 9.56608C13.3585 9.50948 9.50941 6.59439 1.8679 0.820801Z" fill="#8E5A30"/>
<g id="Group_2">
<path id="Vector_19" fill-rule="evenodd" clip-rule="evenodd" d="M29.4622 15.2549L31.8395 22.1322L25.8961 21.7926H22.0755V18.821L22.2453 12.7078L23.0943 13.387L29.4622 15.2549Z" fill="#F89D35"/>
<path id="Vector_20" fill-rule="evenodd" clip-rule="evenodd" d="M24.9623 16.0188L18 16.1886L18.7641 19.7546L22.0755 18.9056L24.9623 16.0188Z" fill="#D87C30"/>
<path id="Vector_21" fill-rule="evenodd" clip-rule="evenodd" d="M24.9623 16.104L22.0755 18.821V21.538L24.9623 16.104Z" fill="#EA8D3A"/>
<path id="Vector_22" fill-rule="evenodd" clip-rule="evenodd" d="M22.0754 18.9058L18.6792 19.7548L17.5754 23.4058L18.3396 23.8303L22.0754 21.6227V18.9058Z" fill="#F89D35"/>
<path id="Vector_23" fill-rule="evenodd" clip-rule="evenodd" d="M22.0755 21.6228L22.7547 26.887L18.3396 23.8303L22.0755 21.6228Z" fill="#EB8F35"/>
<path id="Vector_24" fill-rule="evenodd" clip-rule="evenodd" d="M18 16.1887L17.5754 23.4058L18.8491 19.7123L18 16.1887Z" fill="#EA8E3A"/>
<path id="Vector_25" fill-rule="evenodd" clip-rule="evenodd" d="M25.9811 21.7078L22.0755 21.6228L22.7547 26.887L25.9811 21.7078Z" fill="#D87C30"/>
<path id="Vector_26" fill-rule="evenodd" clip-rule="evenodd" d="M29.9716 29.1795L22.7547 26.8869L25.9811 21.7078L31.8395 22.1322L29.9716 29.1795Z" fill="#EB8F35"/>
<path id="Vector_27" fill-rule="evenodd" clip-rule="evenodd" d="M18.5094 9.56616L22.1603 12.6228L24.9623 16.019L18 16.2738L18.5094 9.56616Z" fill="#E8821E"/>
<path id="Vector_28" fill-rule="evenodd" clip-rule="evenodd" d="M19.8679 17.717L18.9339 19.6699L22.2453 18.8209L19.8679 17.717Z" fill="#393939"/>
<path id="Vector_29" fill-rule="evenodd" clip-rule="evenodd" d="M30.0566 0.820801L18.5094 9.56601L20.4622 4.81129L30.0566 0.820801Z" fill="#E88F35"/>
<path id="Vector_30" fill-rule="evenodd" clip-rule="evenodd" d="M30.0566 0.820801L31.5849 5.49061L30.7358 10.585L31.3302 10.9246L30.4811 11.6887L31.1604 12.2831L30.2264 13.1321L30.8207 13.6416L29.4623 15.3397L23.0943 13.3868C19.9811 10.8963 18.4528 9.62269 18.5094 9.56608C18.566 9.50948 22.4151 6.59439 30.0566 0.820801Z" fill="#8E5A30"/>
</g>
</g>
</g>
<defs>
<clipPath id="clip0_5417_5724">
<rect width="32" height="28.5283" fill="white" transform="translate(0 0.73584)"/>
</clipPath>
</defs>
</svg>
