<svg width="20" height="20" viewBox="0 0 20 20" fill="none" xmlns="http://www.w3.org/2000/svg">
<path d="M19.75 5.23194C19.751 4.49594 19.4651 3.80394 18.9441 3.28394L16.7161 1.05603C16.1951 0.536033 15.5051 0.249003 14.7681 0.250003C14.0321 0.251003 13.341 0.538939 12.823 1.05994L0.468994 13.471C0.327994 13.6119 0.25 13.802 0.25 14V19C0.25 19.414 0.586 19.75 1 19.75H6C6.198 19.75 6.38905 19.671 6.52905 19.532L18.9399 7.177C19.4619 6.659 19.749 5.96794 19.75 5.23194ZM5.68994 18.251H1.75V14.311L10.7429 5.27698L14.7251 9.25794L5.68994 18.251ZM17.8821 6.11499L15.7881 8.19995L11.801 4.21399L13.886 2.11902C14.122 1.88202 14.436 1.75198 14.771 1.75098H14.772C15.106 1.75098 15.42 1.88095 15.657 2.11695L17.885 4.34497C18.121 4.58197 18.251 4.89596 18.251 5.23096C18.25 5.56496 18.1191 5.87899 17.8821 6.11499ZM19.75 19.001C19.75 19.415 19.414 19.751 19 19.751H12C11.586 19.751 11.25 19.415 11.25 19.001C11.25 18.587 11.586 18.251 12 18.251H19C19.414 18.251 19.75 18.587 19.75 19.001Z" fill="#327CC8"/>
</svg>
