<svg width="26" height="26" viewBox="0 0 26 26" fill="none" xmlns="http://www.w3.org/2000/svg">
<path d="M13.0097 11.6458C10.4704 11.6458 8.40558 9.57992 8.40558 7.04167C8.40558 4.50342 10.4704 2.4375 13.0097 2.4375C15.5491 2.4375 17.6139 4.50342 17.6139 7.04167C17.6139 9.57992 15.5491 11.6458 13.0097 11.6458ZM13.0097 4.0625C11.3663 4.0625 10.0306 5.39825 10.0306 7.04167C10.0306 8.68508 11.3663 10.0208 13.0097 10.0208C14.6532 10.0208 15.9889 8.68508 15.9889 7.04167C15.9889 5.39825 14.6521 4.0625 13.0097 4.0625ZM21.3958 22.75V19.5206C21.3958 16.6379 19.7643 13.2708 15.1666 13.2708H10.8333C6.23563 13.2708 4.60413 16.6368 4.60413 19.5206V22.75C4.60413 23.1985 4.96813 23.5625 5.41663 23.5625C5.86513 23.5625 6.22913 23.1985 6.22913 22.75V19.5206C6.22913 18.4362 6.56171 14.8958 10.8333 14.8958H15.1666C19.4382 14.8958 19.7708 18.4351 19.7708 19.5206V22.75C19.7708 23.1985 20.1348 23.5625 20.5833 23.5625C21.0318 23.5625 21.3958 23.1985 21.3958 22.75Z" fill="currentColor"/>
</svg>
