<svg width="24" height="18" viewBox="0 0 24 18" fill="none" xmlns="http://www.w3.org/2000/svg">
<g id="Component 20">
<g clip-path="url(#clip0_7358_11117)">
<rect y="0.5" width="24" height="17" rx="2" fill="white"/>
<path id="vector" fill-rule="evenodd" clip-rule="evenodd" d="M0 0.5H10.2857V8.43333H0V0.5Z" fill="#1A47B8"/>
<path id="vector_2" fill-rule="evenodd" clip-rule="evenodd" d="M10.2857 0.5V1.63333H24V0.5H10.2857ZM10.2857 2.76667V3.9H24V2.76667H10.2857ZM10.2857 5.03333V6.16667H24V5.03333H10.2857ZM10.2857 7.3V8.43333H24V7.3H10.2857ZM0 9.56667V10.7H24V9.56667H0ZM0 11.8333V12.9667H24V11.8333H0ZM0 14.1V15.2333H24V14.1H0ZM0 16.3667V17.5H24V16.3667H0Z" fill="#F93939"/>
<path id="vector_3" fill-rule="evenodd" clip-rule="evenodd" d="M1.14258 1.63379V2.76712H2.28544V1.63379H1.14258ZM3.42829 1.63379V2.76712H4.57115V1.63379H3.42829ZM5.71401 1.63379V2.76712H6.85686V1.63379H5.71401ZM7.99972 1.63379V2.76712H9.14258V1.63379H7.99972ZM6.85686 2.76712V3.90046H7.99972V2.76712H6.85686ZM4.57115 2.76712V3.90046H5.71401V2.76712H4.57115ZM2.28544 2.76712V3.90046H3.42829V2.76712H2.28544ZM1.14258 3.90046V5.03379H2.28544V3.90046H1.14258ZM3.42829 3.90046V5.03379H4.57115V3.90046H3.42829ZM5.71401 3.90046V5.03379H6.85686V3.90046H5.71401ZM7.99972 3.90046V5.03379H9.14258V3.90046H7.99972ZM1.14258 6.16712V7.30046H2.28544V6.16712H1.14258ZM3.42829 6.16712V7.30046H4.57115V6.16712H3.42829ZM5.71401 6.16712V7.30046H6.85686V6.16712H5.71401ZM7.99972 6.16712V7.30046H9.14258V6.16712H7.99972ZM6.85686 5.03379V6.16712H7.99972V5.03379H6.85686ZM4.57115 5.03379V6.16712H5.71401V5.03379H4.57115ZM2.28544 5.03379V6.16712H3.42829V5.03379H2.28544Z" fill="white"/>
</g>
</g>
<defs>
<clipPath id="clip0_7358_11117">
<rect y="0.5" width="24" height="17" rx="2" fill="white"/>
</clipPath>
</defs>
</svg>
