<svg width="20" height="20" viewBox="0 0 20 20" fill="none" xmlns="http://www.w3.org/2000/svg">
<g id="video-eye">
<path id="video-eye_2" d="M8.76668 10.0003C8.76668 10.4603 8.39418 10.8337 7.93335 10.8337C7.47335 10.8337 7.09575 10.4603 7.09575 10.0003C7.09575 9.54033 7.46501 9.16699 7.92501 9.16699H7.93335C8.39335 9.16699 8.76668 9.54033 8.76668 10.0003ZM17.3132 5.81108L15.5101 7.25863C15.4509 7.30613 15.4167 7.3779 15.4167 7.45374V12.5469C15.4167 12.6227 15.4509 12.6945 15.5101 12.742L17.3132 14.1896C17.7241 14.5196 18.3333 14.2269 18.3333 13.7003V6.30037C18.3333 5.77371 17.7241 5.48191 17.3132 5.81108ZM14.1667 6.66699V13.3337C14.1667 15.0003 13.3333 15.8337 11.6667 15.8337H4.16667C2.5 15.8337 1.66667 15.0003 1.66667 13.3337V6.66699C1.66667 5.00033 2.5 4.16699 4.16667 4.16699H11.6667C13.3333 4.16699 14.1667 5.00033 14.1667 6.66699ZM11.0992 9.45121C10.6451 8.68705 9.62417 7.39616 7.91667 7.39616C6.20917 7.39616 5.18909 8.68705 4.73409 9.45121C4.53242 9.78955 4.53242 10.2111 4.73409 10.5494C5.18826 11.3136 6.20917 12.6045 7.91667 12.6045C9.62417 12.6045 10.6442 11.3136 11.0992 10.5494C11.3009 10.2111 11.3009 9.78955 11.0992 9.45121Z" fill="#DD3B3A"/>
</g>
</svg>
