<svg width="16" height="15" viewBox="0 0 16 15" fill="none" xmlns="http://www.w3.org/2000/svg">
<path d="M12.4611 14.167H3.53861C2.57928 14.167 1.71261 13.6763 1.21928 12.8543C0.727943 12.0343 0.703847 11.0417 1.15385 10.1991L5.55782 1.9624C6.04649 1.04707 6.95991 0.500977 7.99857 0.500977C9.03724 0.500977 9.9505 1.04707 10.4392 1.9624L14.8431 10.1991C15.2945 11.0417 15.2705 12.0343 14.7785 12.8543C14.2885 13.6763 13.4211 14.167 12.4611 14.167ZM7.99988 1.50033C7.33588 1.50033 6.75313 1.84894 6.44047 2.43294L2.0365 10.6696C1.75316 11.1996 1.76917 11.8237 2.07784 12.3397C2.3885 12.8577 2.9346 13.1663 3.53926 13.1663H12.462C13.0666 13.1663 13.6132 12.857 13.9232 12.3397C14.2319 11.8243 14.2466 11.2003 13.9639 10.6696L9.55993 2.43294C9.2466 1.84894 8.66388 1.50033 7.99988 1.50033ZM8.49988 8.33366V5.66699C8.49988 5.39099 8.27588 5.16699 7.99988 5.16699C7.72388 5.16699 7.49988 5.39099 7.49988 5.66699V8.33366C7.49988 8.60966 7.72388 8.83366 7.99988 8.83366C8.27588 8.83366 8.49988 8.60966 8.49988 8.33366ZM8.67989 10.3337C8.67989 9.96566 8.38189 9.66699 8.01322 9.66699H8.00655C7.63855 9.66699 7.34314 9.96566 7.34314 10.3337C7.34314 10.7017 7.64522 11.0003 8.01322 11.0003C8.38122 11.0003 8.67989 10.7017 8.67989 10.3337Z" fill="#FFC655"/>
</svg>
